<?xml version="1.0" encoding="UTF-8" standalone="no"?>
<!-- Created with Inkscape (http://www.inkscape.org/) -->

<svg
   xmlns:dc="http://purl.org/dc/elements/1.1/"
   xmlns:cc="http://creativecommons.org/ns#"
   xmlns:rdf="http://www.w3.org/1999/02/22-rdf-syntax-ns#"
   xmlns:svg="http://www.w3.org/2000/svg"
   xmlns="http://www.w3.org/2000/svg"
   xmlns:sodipodi="http://sodipodi.sourceforge.net/DTD/sodipodi-0.dtd"
   xmlns:inkscape="http://www.inkscape.org/namespaces/inkscape"
   width="2800"
   height="2800"
   viewBox="0 0 2800 2800"
   id="svg2"
   version="1.1"
   inkscape:version="0.91 r13725"
   sodipodi:docname="025 - The One with All the Music (cover).svg"
   inkscape:export-filename="/Users/davidmarsh/Dropbox/sad_fm/episode covers/025 - The One with All the Music (cover).png"
   inkscape:export-xdpi="90"
   inkscape:export-ydpi="90">
  <defs
     id="defs4">
    <clipPath
       clipPathUnits="userSpaceOnUse"
       id="clipPath4319">
      <circle
         style="opacity:1;fill:#ff0000;fill-opacity:1"
         id="circle4321"
         cx="1400"
         cy="-347.63794"
         r="1400" />
    </clipPath>
    <clipPath
       clipPathUnits="userSpaceOnUse"
       id="clipPath4804">
      <path
         inkscape:connector-curvature="0"
         style="stroke:#5a5a5a;stroke-width:2.2464;fill:#f7f706"
         d="m299.26 386.87c-59.927 0.19242-118.15 33.338-149.43 84.528-29.587 47.381-34.943 109.53-13.359 161.15 20.457 50.286 64.824 90.128 117.24 104.35 52.87 14.818 112.47 3.7396 155.86-29.943 43.391-32.827 70.497-86.457 70.265-141.19 0.44242-54.482-25.675-108.28-68.957-141.47-31.64-24.56-71.52-38.14-111.62-37.43zm1.8166 106.99c32.484-0.70821 63.264 23.601 69.963 55.43 6.8987 29.342-6.8831 62.048-33.025 77.065-25.348 15.319-60.217 12.718-82.544-6.863-20.668-17.356-30.166-47.046-22.731-73.19 8.1493-30.116 36.926-52.731 68.337-52.442z"
         id="path4806" />
    </clipPath>
    <clipPath
       clipPathUnits="userSpaceOnUse"
       id="clipPath4812">
      <path
         inkscape:connector-curvature="0"
         style="stroke:#5a5a5a;stroke-width:3.1944;fill:#f7f706"
         d="m263.33 41.974c-85.22 0.273-168.01 47.406-212.49 120.2-42.074 67.38-49.689 155.75-18.997 229.15 29.09 71.506 92.179 128.16 166.71 148.38 75.18 21.071 159.93 5.3177 221.64-42.579 61.7-46.68 100.24-122.94 99.91-200.77 0.63-77.47-36.5-153.97-98.05-201.17-44.99-34.912-101.7-54.217-158.72-53.206zm2.5832 152.14c46.192-1.0071 89.961 33.56 99.486 78.821 9.8098 41.725-9.7877 88.232-46.961 109.58-36.044 21.783-85.627 18.084-117.38-9.7591-29.39-24.681-42.896-66.899-32.324-104.07 11.588-42.825 52.508-74.983 97.175-74.572z"
         id="path4814" />
    </clipPath>
    <clipPath
       clipPathUnits="userSpaceOnUse"
       id="clipPath4894">
      <path
         inkscape:connector-curvature="0"
         style="fill:#0e0d0d"
         d="m713.37 615.95c0 204.69-163.07 370.62-364.22 370.62s-364.22-165.93-364.22-370.62 163.07-370.62 364.22-370.62 364.22 165.93 364.22 370.62z"
         id="path4896" />
    </clipPath>
    <clipPath
       id="clipPath4319-7"
       clipPathUnits="userSpaceOnUse">
      <circle
         r="1400"
         cy="-347.63794"
         cx="1400"
         id="circle4321-6"
         style="opacity:1;fill:#ff0000;fill-opacity:1" />
    </clipPath>
    <clipPath
       id="clipPath4319-4"
       clipPathUnits="userSpaceOnUse">
      <circle
         r="1400"
         cy="-347.63794"
         cx="1400"
         id="circle4321-62"
         style="opacity:1;fill:#ff0000;fill-opacity:1" />
    </clipPath>
    <clipPath
       id="clipPath4319-2"
       clipPathUnits="userSpaceOnUse">
      <circle
         r="1400"
         cy="-347.63794"
         cx="1400"
         id="circle4321-8"
         style="opacity:1;fill:#ff0000;fill-opacity:1" />
    </clipPath>
  </defs>
  <sodipodi:namedview
     id="base"
     pagecolor="#ffffff"
     bordercolor="#666666"
     borderopacity="1.0"
     inkscape:pageopacity="0.0"
     inkscape:pageshadow="2"
     inkscape:zoom="0.23321429"
     inkscape:cx="1400"
     inkscape:cy="1400"
     inkscape:document-units="px"
     inkscape:current-layer="g4514"
     showgrid="false"
     units="px"
     inkscape:window-width="1436"
     inkscape:window-height="855"
     inkscape:window-x="4"
     inkscape:window-y="1"
     inkscape:window-maximized="1"
     showguides="true"
     inkscape:guide-bbox="true" />
  <metadata
     id="metadata7">
    <rdf:RDF>
      <cc:Work
         rdf:about="">
        <dc:format>image/svg+xml</dc:format>
        <dc:type
           rdf:resource="http://purl.org/dc/dcmitype/StillImage" />
        <dc:title />
      </cc:Work>
    </rdf:RDF>
  </metadata>
  <g
     inkscape:label="Layer 1"
     inkscape:groupmode="layer"
     id="layer1"
     transform="translate(0,1747.6379)">
    <rect
       style="opacity:1;fill:#ffffff;fill-opacity:1"
       id="rect4284"
       width="2800"
       height="2800"
       x="0"
       y="-1747.6379" />
    <g
       transform="matrix(3.9837491,0,0,3.9837559,11.427708,-2832.374)"
       inkscape:label="Layer 1"
       id="layer1-3">
      <g
         transform="matrix(0.96971,0,0,0.96105,8.2249,27.001)"
         id="g5022">
        <g
           clip-path="url(#clipPath4894)"
           id="g4833">
          <path
             d="m 355.7,255.23 c -202.77,0 -367.14,164.38 -367.14,367.14 0,202.77 164.38,367.14 367.14,367.14 202.77,0 367.14,-164.38 367.14,-367.14 0,-202.77 -164.38,-367.14 -367.14,-367.14 z m 0,299.19 c 37.519,0 67.955,30.436 67.955,67.955 0,37.519 -30.436,67.931 -67.955,67.931 -37.519,0 -67.931,-30.412 -67.931,-67.931 0,-37.519 30.412,-67.955 67.931,-67.955 z"
             inkscape:connector-curvature="0"
             style="fill:#040404"
             id="path3935" />
          <path
             d="M 355.41,281.19 C 230.7,280.11 108.97,353.99 52.78,465.07 2.966,560.23 1.424,679.99 50.76,775.61 c 41.127,82.13 116.61,146.62 204.79,173.05 85.33,26.31 181.46,17.73 259.99,-24.78 73,-38.48 131.09,-104.26 159.76,-181.72 30.11,-79.9 29.07,-171.78 -4.41,-250.64 C 640.82,418.99 585.5,357.5 515.87,321.16 466.77,295.01 411.19,280.69 355.41,281.19 Z"
             inkscape:connector-curvature="0"
             style="fill:none;stroke:#5a5a5a;stroke-width:0.76488"
             id="path4446" />
          <path
             d="M 353.43,285.71 C 230.91,285.53 111.52,358.56 56.48,467.75 4.915,566.8 6.595,692.26 63.038,788.81 c 48.222,85.32 135.17,147.85 232.01,164.8 86.6,15.82 179.4,-3.28 251.51,-53.85 73.5,-50.35 125.88,-130.95 140.78,-219.09 14.15,-79.98 -1.54,-165.04 -44.37,-233.94 -39.11,-64.2 -100.19,-114.53 -170.96,-140.25 -37.76,-14.06 -78.2,-21.15 -118.58,-20.77 z"
             inkscape:connector-curvature="0"
             style="fill:none;stroke:#5a5a5a;stroke-width:0.76488"
             id="path4482" />
          <path
             d="M 347.62,290.34 C 225.93,292.43 108.51,367.56 56.66,477.55 7.196,579.01 13.639,706.47 75.778,801.12 c 53.832,84.74 147.85,143.36 248.51,151.9 89.06,8.5 181.14,-20.08 248.41,-79.18 68.06,-58.63 111.33,-145.84 114.79,-235.88 4.08,-83.32 -24.46,-167.77 -78.78,-230.8 -55.28,-65.28 -137.61,-108.46 -223.32,-115.57 -12.551,-1.1579 -25.168,-1.4388 -37.766,-1.2429 z"
             inkscape:connector-curvature="0"
             style="fill:none;stroke:#5a5a5a;stroke-width:0.76488"
             id="path4490" />
          <path
             d="M 354.15,294.84 C 236.09,294.46 121,364.05 66.34,468.39 9.852,573.57 16.62,710.6 86.009,808.26 c 56.71,82.651 152.92,137.35 253.53,141.26 94.74,4.9036 191.01,-33.282 255.15,-103.15 61.183,-65.206 94.661,-156.1 87.872,-245.77 -5.5105,-85.435 -45.938,-168.29 -110.5,-224.14 -59.345,-52.177 -138.45,-82.563 -217.92,-81.621 z"
             inkscape:connector-curvature="0"
             style="fill:none;stroke:#5a5a5a;stroke-width:0.76488"
             id="path4498" />
          <path
             d="M 354.15,299.43 C 234.65,299.06 118.66,371.28 66.24,478.48 14.202,582.61 23.646,715.73 92.598,809.77 c 58.882,83.05 158.88,136.12 261.28,135.59 97.492,0.81558 194.51,-44.81 254.37,-121.68 54.298,-67.831 80.232,-159 67.451,-245.58 -12.41,-91.05 -65.38,-175.95 -142.61,-225.52 -52.8,-34.57 -115.63,-53.86 -178.94,-53.15 z"
             inkscape:connector-curvature="0"
             style="fill:none;stroke:#5a5a5a;stroke-width:0.76488"
             id="path4506" />
          <path
             d="M 354.22,304.02 C 238.79,303.71 126.71,371.93 73.56,474.11 16.057,582.54 28.184,724.9 106.16,820.22 c 62.052,78.394 162.46,125.63 262.88,120.33 98.178,-3.9179 193.34,-55.422 248.35,-136.82 50.946,-73.032 69.58,-168.32 48.172,-254.98 -20.89,-88.13 -80.59,-166.45 -161.23,-207.8 -46.06,-24.33 -97.97,-37.49 -150.11,-36.93 z"
             inkscape:connector-curvature="0"
             style="fill:none;stroke:#5a5a5a;stroke-width:0.76488"
             id="path4514" />
          <path
             d="m 354.29,308.61 c -113.57,-0.33 -223.96,66.78 -276.46,167.12 -57.092,107.29 -44.837,248.4 32.56,342.6 59.46,74.16 154.02,120.19 249.8,117.99 93.83,-1.28 186.17,-46.69 243.31,-121.1 53.74,-69.16 77.27,-161.56 61.33,-248.16 C 648.78,478.08 593.16,397.09 514.74,351.79 466.35,323.7 410.39,308.03 354.29,308.61 Z"
             inkscape:connector-curvature="0"
             style="fill:none;stroke:#5a5a5a;stroke-width:0.76488"
             id="path4522" />
          <path
             d="M 354.36,313.2 C 239.27,312.85 127.55,382.81 77.57,486.29 26.907,589.62 39.484,721.92 111.36,812.31 c 61.2,78.318 161.46,125.45 261.26,119.01 100.67,-5.4341 197.4,-62.65 248.27,-149.69 45.83,-76.287 57.528,-173.47 27.966,-257.99 -27.62,-81.45 -89.55,-150.59 -168.83,-184.29 -39.5,-17.3 -82.48,-26.56 -125.67,-26.15 z"
             inkscape:connector-curvature="0"
             style="fill:none;stroke:#5a5a5a;stroke-width:0.76488"
             id="path4530" />
          <path
             d="m 350.92,317.76 c -117.72,1.19 -230.86,76.58 -275.96,185.33 -44.367,105.07 -25.236,235.37 51.61,320.3 64.21,72.83 164.48,113.6 261.58,102.05 97.32,-10.4 188.7,-69.93 234.81,-156.61 C 667.97,686.9 673.38,583.52 634,498.3 600.74,423.95 537.43,363.57 460.3,336.36 425.38,323.52 388.22,317.15 350.92,317.76 Z"
             inkscape:connector-curvature="0"
             style="fill:none;stroke:#5a5a5a;stroke-width:0.76488"
             id="path4538" />
          <path
             d="m 353.12,322.33 c -114.74,0.25484 -225.68,72.524 -271.77,177.33 -41.88,94.643 -31.368,211.21 28.707,295.7 57.994,82.275 159.33,132.55 260.49,127.02 100.97,-4.9521 197.94,-63.994 246.8,-152.58 45.802,-81.431 51.622,-184.89 12.418,-270.04 -33.974,-75.106 -98.926,-135.71 -177.52,-161.42 -31.822,-10.756 -65.44,-16.364 -99.118,-16.004 z"
             inkscape:connector-curvature="0"
             style="fill:none;stroke:#5a5a5a;stroke-width:0.76488"
             id="path4546" />
          <path
             d="M 353.19,326.92 C 240.18,327.21 131.03,398.31 85.55,501.39 40.709,602.55 57.027,729.17 129.77,813.28 192.56,887.05 293.08,928.31 389.85,916.16 490.73,904.26 583.86,838.02 624.83,744.87 663.18,660.32 660.04,556.92 612.71,476.43 573.83,408.26 507.47,355.96 431.19,336.79 c -25.388,-6.7389 -51.68,-10.134 -77.999,-9.879 z"
             inkscape:connector-curvature="0"
             style="fill:none;stroke:#5a5a5a;stroke-width:0.76488"
             id="path4554" />
          <path
             d="M 353.26,331.51 C 240.31,331.8203 131.22,403.914 87.65,508.1 45.49,608.15 63.493,732.12 135.94,813.46 c 63.841,72.893 165.84,112.3 262.41,96.958 97.132,-14.64 185.6,-80.494 224.09,-171.26 35.967,-82.819 31.943,-183.08 -13.989,-261.18 -39.331,-67.991 -106.26,-119.96 -183.1,-137.98 -23.544,-5.7144 -47.798,-8.7317 -72.087,-8.4764 z"
             inkscape:connector-curvature="0"
             style="fill:none;stroke:#5a5a5a;stroke-width:0.76488"
             id="path4562" />
          <path
             d="M 353.33,336.09 C 244.83,336.4 139.92,404 95.05,502.58 48.834,603.69 66.956,732.18 142.71,814.19 206.69,884.55 306.99,921.57 401.42,905.28 496.53,889.68 582.57,824 619.42,734.57 656.91,646.16 647.56,538.13 591.4,459.69 548.37,397.66 480.29,352.74 405.32,340.47 c -17.139,-3.0141 -34.551,-4.5379 -51.988,-4.3742 z"
             inkscape:connector-curvature="0"
             style="fill:none;stroke:#5a5a5a;stroke-width:0.76488"
             id="path4570" />
          <path
             d="m 350.87,340.71 c -109.42,1.36 -214.49,72.1 -255.76,173.19 -39.239,95.82 -22.028,213.35 46.14,291.83 63.33,73.4 166.17,112.16 262.38,94.56 C 500.19,883.33 586.26,814.11 619.68,721.51 653,632.42 638.95,526.01 579.49,451.13 531.64,388.66 456.82,346.87 377.83,341.59 c -8.9633,-0.76338 -17.969,-1.0032 -26.962,-0.8844 z"
             inkscape:connector-curvature="0"
             style="fill:none;stroke:#5a5a5a;stroke-width:0.76488"
             id="path4578" />
          <path
             d="m 350.94,345.3 c -109.58,1.37 -214.65,73.43 -253.82,175.89 -36.98,96.43 -16.66,213.69 54.48,289.23 64.16,68.91 164.87,103.53 257.76,84.13 93.1,-18.6 175.36,-87.15 207,-177.07 31.97,-88.17 16.85,-193.18 -42.52,-266.34 -50.11,-63.45 -128.6,-104.35 -209.96,-105.73 -4.3082,-0.15174 -8.6215,-0.16684 -12.932,-0.11545 z"
             inkscape:connector-curvature="0"
             style="fill:none;stroke:#5a5a5a;stroke-width:0.76488"
             id="path4586" />
          <path
             d="M 355.92,349.86 C 248.99,349.1 145.23,417.4 104.1,516.07 c -39.068,93.9 -21.578,209.68 46.02,285.91 62.14,70.48 162.1,106.67 255.01,88.78 96.86,-18.06 182.12,-91.28 210.74,-186.08 27.41,-87.6 8.57,-189.6 -52.29,-258.9 -51.14,-59.63 -128.56,-96.9 -207.66,-95.92 z"
             inkscape:connector-curvature="0"
             style="fill:none;stroke:#5a5a5a;stroke-width:0.76488"
             id="path4594" />
          <path
             d="m 355.99,354.45 c -106.59,-0.84 -210,68.33 -249.28,167.37 -37.842,95.29 -16.92,212.56 55.07,285.99 61.32,63.44 154.74,94.95 241.95,78.59 C 497.78,869.06 581.07,798.53 610.36,707.04 639.1,619.53 620.54,516.71 559.01,447.52 508.97,389.81 433.14,353.44 355.99,354.45 Z"
             inkscape:connector-curvature="0"
             style="fill:none;stroke:#5a5a5a;stroke-width:0.76488"
             id="path4602" />
          <path
             d="m 356.06,359.04 c -110.29,-0.96 -217.33,74.7 -250.69,180.15 -28.915,89.63 -7.518,194.85 57.56,263.27 62.1,65.79 159.58,97.74 248.56,77.7 84.6,-18.76 158.69,-80.65 190.06,-161.86 34.09,-87.9 17.66,-194.57 -44.42,-266.06 -49.47,-57.71 -124.42,-94.19 -201.07,-93.2 z"
             inkscape:connector-curvature="0"
             style="fill:none;stroke:#5a5a5a;stroke-width:0.76488"
             id="path4610" />
          <path
             d="M 356.13,363.63 C 255,362.77508 156.84,427.212 117.3,520.17 c -40.733,96.034 -18.116,216.7 58.374,288.6 61.01,58.152 151.62,85.433 234.55,67.021 90.93,-19.944 169.64,-91.359 194.49,-181.49 23.907,-84.349 3.177,-181.17 -56.769,-245.55 -48.6,-52.87 -119.39,-86.06 -191.81,-85.12 z"
             inkscape:connector-curvature="0"
             style="fill:none;stroke:#5a5a5a;stroke-width:0.76488"
             id="path4618" />
          <path
             d="m 356.2,368.22 c -103.37,-0.89 -203.42,67.637 -238.98,164.56 -31.93,86.967 -13.187,191.38 49.285,260.17 60.16,65.993 156.34,97.873 243.86,78.153 90.61,-20.33 168.7,-92.87 191.44,-183.47 21.45,-82.93 -0.42,-177.1 -60.29,-239.08 -47.65,-49.94 -115.73,-81.25 -185.31,-80.33 z"
             inkscape:connector-curvature="0"
             style="fill:none;stroke:#5a5a5a;stroke-width:0.76488"
             id="path4626" />
          <path
             d="m 356.27,372.81 c -103.19,-0.94746 -203.08,68.696 -236.46,166.4 -30.778,89.797 -7.4334,197.01 61.904,262.7 61.858,59.169 155.18,84.938 238.21,62.097 82.327,-22.496 151.8,-88.271 175.61,-170.56 24.09,-83.185 2.9668,-179.29 -57.485,-241.92 -46.75,-48.8 -113.59,-79.634 -181.78,-78.711 z"
             inkscape:connector-curvature="0"
             style="fill:none;stroke:#5a5a5a;stroke-width:0.76488"
             id="path4634" />
          <path
             d="m 356.35,377.4 c -99.433,-0.93174 -195.61,64.812 -230.24,157.85 -32.491,87.34 -11.501,193.23 54.719,259.39 60.402,60.744 154.5,87.851 237.88,64.919 81.342,-22.093 150.2,-87.793 172.93,-169.3 22.681,-80.711 2.243,-172.94 -55.502,-234.08 -45.996,-48.777 -112.15,-79.651 -179.79,-78.783 z"
             inkscape:connector-curvature="0"
             style="fill:none;stroke:#5a5a5a;stroke-width:0.76488"
             id="path4642" />
          <path
             d="m 356.39,381.99 c -98.445,-0.86798 -193.38,64.535 -226.75,157 -31.317,86.726 -9.2077,191.23 57.5,255.44 59.676,57.778 150.16,82.705 230.66,60.617 79.853,-21.73 147.13,-86.306 169.52,-166.24 22.068,-78.657 2.1631,-168.88 -53.805,-228.72 -45.26,-48.37 -110.43,-78.92 -177.12,-78.1 z"
             inkscape:connector-curvature="0"
             style="fill:none;stroke:#5a5a5a;stroke-width:0.76488"
             id="path4650" />
          <path
             d="m 356.42,386.58 c -100.85,-1.07 -198.55,69.63 -226.7,166.89 -25.493,86.423 1.0812,187.35 69.946,246.21 59.429,51.539 145.4,72.188 221.29,49.691 76.11,-22.318 140.01,-84.504 161.75,-161.17 22.189,-77.898 2.0832,-167.35 -53.733,-226.31 -44.283,-46.537 -107.71,-76.13 -172.55,-75.317 z"
             inkscape:connector-curvature="0"
             style="fill:none;stroke:#5a5a5a;stroke-width:0.76488"
             id="path4658" />
          <path
             d="m 356.49,391.17 c -98.291,-1.006 -193.23,67.227 -221.74,161.4 -25.232,82.469 -1.7643,179 61.565,237.99 58.044,54.317 145.09,76.952 221.98,54.832 78.777,-22.533 144.45,-88.759 162.78,-169.28 18.342,-78.946 -6.5421,-167.8 -67.066,-222.45 -42.449,-38.96 -99.32,-63.181 -157.52,-62.49 z"
             inkscape:connector-curvature="0"
             style="fill:none;stroke:#5a5a5a;stroke-width:0.76488"
             id="path4666" />
          <path
             d="m 356.56,395.76 c -94.579,-0.96588 -186.07,63.355 -215.89,153.33 -27.729,83.381 -3.562,182.88 62.505,241.51 58.136,52.052 144.03,72.374 218.88,48.875 77.654,-24.107 141.23,-91.999 156.27,-172.46 14.568,-75.251 -10.223,-158.06 -67.191,-209.81 -41.768,-38.324 -97.592,-62.149 -154.58,-61.453 z"
             inkscape:connector-curvature="0"
             style="fill:none;stroke:#5a5a5a;stroke-width:0.76488"
             id="path4674" />
          <path
             d="m 356.63,400.34 c -85.874,-0.81203 -168.9,52.904 -204.15,130.99 -37.332,83.452 -16.928,189.69 49.716,252.14 56.89,53.731 143.26,75.058 218.4,51.677 74.81,-23.287 136.07,-87.629 152.38,-164.71 16.527,-76.717 -9.4485,-162.42 -69.303,-213.78 -40.406,-35.18 -93.112,-56.958 -147.04,-56.318 z"
             inkscape:connector-curvature="0"
             style="fill:none;stroke:#5a5a5a;stroke-width:0.76488"
             id="path4682" />
          <path
             d="m 352.31,404.93 c -91.55,1.0044 -179.34,65.556 -205.01,153.76 -23.17,78.658 0.43469,170.09 61.86,224.99 56.888,51.128 142.29,70.306 215.22,45.439 74.915,-25.366 134.8,-93.197 146.4,-172 10.882,-70.603 -13.858,-146.44 -67.118,-194.47 -41.053,-36.804 -95.682,-59.467 -151.35,-57.725 z"
             inkscape:connector-curvature="0"
             style="fill:none;stroke:#5a5a5a;stroke-width:0.76488"
             id="path4690" />
          <path
             d="m 355.01,409.45 c -90.752,-0.0649 -177.97,63.443 -203.41,150.87 -22.555,76.837 0.63619,166.25 60.641,219.98 55.092,49.533 137.14,68.209 208.02,45.391 64.288,-20.941 117.29,-73.074 138.46,-137.45 25.397,-77.618 1.4636,-169.89 -60.048,-223.95 -39.411,-34.362 -90.983,-55.756 -143.66,-54.838 z"
             inkscape:connector-curvature="0"
             style="fill:none;stroke:#5a5a5a;stroke-width:0.76488"
             id="path4698" />
          <path
             d="m 353.55,444.01 c -59.927,0.19242 -118.15,33.338 -149.43,84.528 -29.587,47.381 -34.943,109.53 -13.359,161.15 20.457,50.286 64.824,90.128 117.24,104.35 52.87,14.818 112.47,3.7396 155.86,-29.943 43.391,-32.827 70.497,-86.457 70.265,-141.19 0.44242,-54.482 -25.675,-108.28 -68.957,-141.47 -31.641,-24.552 -71.517,-38.129 -111.62,-37.418 z M 355.3666,551 c 32.484,-0.70821 63.264,23.601 69.963,55.43 6.8987,29.342 -6.8831,62.048 -33.025,77.065 -25.348,15.319 -60.217,12.718 -82.544,-6.863 -20.668,-17.356 -30.166,-47.046 -22.731,-73.19 8.1493,-30.116 36.926,-52.731 68.337,-52.442 z"
             inkscape:connector-curvature="0"
             style="fill:#f7f706;stroke:#5a5a5a;stroke-width:2.24640012"
             id="path4710" />
          <path
             d="m 334.28572,589.50504 -66.90824,-24.10589 -57.78915,41.4514 2.25029,-71.08264 -57.28046,-42.15156 68.29898,-19.8256 22.38789,-67.5025 39.96081,58.82975 71.11693,0.43272 -43.60185,56.18438 z"
             inkscape:flatsided="false"
             inkscape:rounded="0"
             sodipodi:cx="260"
             sodipodi:cy="512.36218"
             inkscape:randomized="0"
             transform="translate(54.286,57.143)"
             sodipodi:arg2="1.4325824"
             sodipodi:arg1="0.80426385"
             inkscape:transform-center-y="-5.7927816"
             sodipodi:r2="53.547615"
             sodipodi:r1="107.09523"
             inkscape:transform-center-x="4.559537"
             clip-path="url(#clipPath4804)"
             sodipodi:sides="5"
             sodipodi:type="star"
             style="fill:#f70f06;stroke:#5a5a5a;stroke-width:2.41599989"
             id="path4753" />
          <path
             sodipodi:sides="5"
             inkscape:flatsided="false"
             inkscape:rounded="0"
             sodipodi:cx="260"
             sodipodi:cy="512.36218"
             inkscape:randomized="0"
             sodipodi:arg1="0.80426385"
             sodipodi:arg2="1.4325824"
             transform="matrix(0.50734,0,0,0.50734,332.69,308.14)"
             inkscape:transform-center-y="-2.9388936"
             inkscape:transform-center-x="2.3132154"
             sodipodi:r1="107.09523"
             d="m 334.28572,589.50504 -66.90824,-24.10589 -57.78915,41.4514 2.25029,-71.08264 -57.28046,-42.15156 68.29898,-19.8256 22.38789,-67.5025 39.96081,58.82975 71.11693,0.43272 -43.60185,56.18438 z"
             sodipodi:type="star"
             style="fill:#f70f06;stroke:#5a5a5a;stroke-width:2.41599989"
             sodipodi:r2="53.547615"
             id="path4755" />
          <path
             d="m 334.28572,589.50504 -66.90824,-24.10589 -57.78915,41.4514 2.25029,-71.08264 -57.28046,-42.15156 68.29898,-19.8256 22.38789,-67.5025 39.96081,58.82975 71.11693,0.43272 -43.60185,56.18438 z"
             inkscape:flatsided="false"
             inkscape:rounded="0"
             sodipodi:cx="260"
             sodipodi:cy="512.36218"
             inkscape:randomized="0"
             transform="matrix(0.70324,0,0,0.70324,168.37,414.5)"
             sodipodi:arg2="1.4325824"
             sodipodi:arg1="0.80426385"
             inkscape:transform-center-y="-4.0737275"
             sodipodi:r2="53.547615"
             sodipodi:r1="107.09523"
             inkscape:transform-center-x="3.2064485"
             clip-path="url(#clipPath4812)"
             sodipodi:sides="5"
             sodipodi:type="star"
             style="fill:#f70f06;stroke:#5a5a5a;stroke-width:2.41599989"
             id="path4808" />
          <path
             d="m 3.5804,648.79 c 4.0567,215.23 210.4,342.43 367.31,324.79 C 175.4704,994.8 9.3704,810.65 3.5804,648.79 Z"
             inkscape:connector-curvature="0"
             style="color:#000000;text-indent:0;text-transform:none;block-progression:tb;fill:#ffffff"
             sodipodi:nodetypes="ccc"
             id="path4823" />
          <path
             inkscape:connector-curvature="0"
             style="color:#000000;text-indent:0;text-transform:none;block-progression:tb;fill:#ffffff"
             sodipodi:nodetypes="ccc"
             d="M 159.29,624.5 C 161.3346,755.93 263.23,823.68 342.32,812.91 243.822,825.866 162.21,723.336 159.29,624.5 Z"
             id="path4831" />
        </g>
        <path
           style="opacity:0.23894001;fill:#000101"
           inkscape:connector-curvature="0"
           inkscape:transform-center-y="54.822859"
           inkscape:transform-center-x="20.469221"
           d="M 650.41,789.92 C 575.73,900.38 284.68,1013.4 146.76,920.21 8.84,826.98 -79.72,494.27 122.23,366.75 483.68,295.09 752.01,714.65 650.41,789.92 Z"
           sodipodi:nodetypes="cscc"
           id="path4898" />
        <path
           inkscape:transform-center-x="110.18754"
           inkscape:connector-curvature="0"
           inkscape:transform-center-y="83.014769"
           sodipodi:nodetypes="ccc"
           d="M 202.98,619.87 C 217.209,673.396 239.268,737.53 303.3,766.02 250.4,756.71 199.88,700.74 202.98,619.87 Z"
           style="opacity:0.26549;fill:#f3ede9"
           id="path4934" />
      </g>
    </g>
    <g
       id="g4514"
       transform="matrix(0.8084663,0,0,0.8084663,268.14718,-66.584367)">
      <g
         clip-path="url(#clipPath4319-2)"
         transform="matrix(0.82342394,0,0,0.81707319,247.20648,-63.592257)"
         id="g4226">
        <rect
           style="fill:#ffffff;fill-opacity:1;stroke:none;stroke-width:1;stroke-linecap:butt;stroke-linejoin:round;stroke-miterlimit:4;stroke-dasharray:none;stroke-dashoffset:30;stroke-opacity:1"
           id="rect4228"
           width="2800"
           height="2800"
           x="0"
           y="-1747.6379" />
        <rect
           style="fill:#f1b947;fill-opacity:1;stroke:none;stroke-width:33.95999908;stroke-linecap:butt;stroke-linejoin:round;stroke-miterlimit:4;stroke-dasharray:none;stroke-dashoffset:30;stroke-opacity:1"
           id="rect3372"
           width="2800"
           height="700"
           x="0"
           y="352.36209" />
        <path
           style="fill:none;fill-rule:evenodd;stroke:#000000;stroke-width:70;stroke-linecap:butt;stroke-linejoin:miter;stroke-miterlimit:4;stroke-dasharray:none;stroke-opacity:1"
           d="m 0,327.42547 2800,0"
           id="path4176"
           inkscape:connector-curvature="0" />
        <text
           xml:space="preserve"
           style="font-style:normal;font-variant:normal;font-weight:bold;font-stretch:normal;font-size:411.04821777px;line-height:125%;font-family:Futura;-inkscape-font-specification:'Futura Bold';text-align:center;letter-spacing:0px;word-spacing:0px;writing-mode:lr-tb;text-anchor:middle;fill:#000000;fill-opacity:1;stroke:none;stroke-width:1px;stroke-linecap:butt;stroke-linejoin:miter;stroke-opacity:1"
           x="1539.6808"
           y="724.27936"
           id="text4180"
           sodipodi:linespacing="125%"
           transform="scale(0.91344221,1.09476)"><tspan
             sodipodi:role="line"
             id="tspan4182"
             x="1539.6808"
             y="724.27936">sand.fm</tspan></text>
        <g
           id="g4272">
          <path
             style="fill:#f9d8bb"
             inkscape:connector-curvature="0"
             id="path5"
             d="m 1448.4605,89.476912 c 0,0 -21.4918,159.165768 -26.0164,205.542748 l 212.2753,0 3.0225,-143.70075 -143.2845,-73.904535 -45.9969,12.062537" />
          <path
             style="fill:#d9a685"
             inkscape:connector-curvature="0"
             id="path7"
             d="m 1610.4224,194.68251 -0.2081,-18.10738 -161.7538,-87.098218 -9.0492,64.475308 171.9342,117.63915 -0.9231,-76.90886" />
          <path
             style="fill:#f9d8bb"
             inkscape:connector-curvature="0"
             id="path53"
             d="m 2525.3112,89.476912 c 0,0 21.4917,159.165768 26.0163,205.542748 l -212.2753,0 -3.0224,-143.70075 143.2845,-73.904535 45.9969,12.062537" />
          <path
             style="opacity:1;fill:#aa907f;fill-opacity:1"
             inkscape:connector-curvature="0"
             id="path9"
             d="m 2360.4716,295.01966 c 0.5791,-25.82632 1.3302,-58.71099 2.1627,-94.80811 l 5.4476,-28.161 197.9505,-104.065405 c 0,0 -36.3686,-179.870265 -61.0909,-234.916335 -31.663,-70.493 -75.7777,-106.68966 -126.2178,-128.19048 -106.7168,-45.49015 -309.3095,-72.82768 -309.3095,-72.82768 l -165.0568,0 c 0,0 -202.5927,27.33753 -309.3095,72.82768 -50.44,21.50082 -94.5547,57.69748 -126.2178,128.19048 -24.7313,55.04607 -61.0909,234.916335 -61.0909,234.916335 l 197.9505,104.065405 5.5834,33.93437 c 0.7691,33.82578 1.4659,64.58389 2.027,89.03474" />
          <path
             style="fill:#f9d8bb"
             inkscape:connector-curvature="0"
             id="path43"
             d="m 1640.5471,-641.1889 c -70.0677,-35.62656 -95.713,-108.15562 -89.3243,-194.22224 5.0856,-68.43883 46.377,-78.5377 63.5975,-76.29351 0,0 23.9532,-0.28052 34.6402,18.72272 10.6871,19.0123 13.067,220.91728 -8.9134,251.79303" />
          <path
             style="fill:#f9d8bb"
             inkscape:connector-curvature="0"
             id="path45"
             d="m 2332.9892,-641.1889 c 70.0677,-35.62656 95.7131,-108.15562 89.3244,-194.22224 -5.0857,-68.43883 -46.377,-78.5377 -63.5885,-76.29351 0,0 -25.1477,2.09941 -29.8985,9.2211 -4.7417,7.12169 -24.9395,243.47684 4.1626,261.29465" />
          <path
             inkscape:connector-curvature="0"
             id="path55"
             transform="translate(0,-1747.6379)"
             d="m 1611.3457,1824.5098 c 1.846,80.2118 0.7425,164.4235 1.9551,218.1484 l 746.7773,0 c 1.2126,-53.7249 0.1091,-137.9366 1.9551,-218.1484 -116.4446,36.1604 -230.8087,56.3398 -367.252,56.3398 -2.7008,0 -5.3964,-0.014 -8.0917,-0.029 -2.6954,0.016 -5.391,0.029 -8.0918,0.029 -136.4433,0 -250.8074,-20.1794 -367.252,-56.3398 z"
             style="fill:#552200;fill-opacity:1" />
          <g
             transform="matrix(4.5245827,0,0,4.5245827,1400.4999,-1453.2791)"
             id="g57">
            <path
               style="fill:#f9d8bb"
               inkscape:connector-curvature="0"
               id="path59"
               d="m 165.802,243.628 -18.078,-3.912 c -0.146,-1.618 -0.188,-2.892 -0.188,-2.892 l -35.88,-0.202 c 0,0 -0.026,1.67 -0.202,3.616 l -18.048,2.236 c -4.056,0.868 -3.918,6.542 1.998,11.29 5.942,4.768 14.848,8.854 34.082,8.854 19.234,0 28.142,-4.086 34.082,-8.854 5.916,-4.748 6.292,-9.268 2.234,-10.136" />
            <path
               style="fill:#7d563a"
               inkscape:connector-curvature="0"
               id="path61"
               d="m 51.002,131.766 c -7.44,-21.66 -4.376,-41.006 -4.376,-41.006 0,0 -4.756,5.036 -4.464,-0.526 1.05,-19.948 13.04,-40.162 13.04,-40.162 0,0 -11.902,3.5 -6.302,-3.85 16.264,-21.34 41.302,-24.852 41.302,-24.852 0,0 -12.252,-2.098 -8.75,-5.948 3.5,-3.85 17.532,-9.86 33.598,-11.9 22.05,-2.8 40.95,3.5 47.25,11.9 0,0 37.158,1.028 49.702,37.102 1.11,3.186 0.072,4.124 -1.58,4.092 l -2.954,-0.452 c 2.546,4.416 10.866,20.64 9.082,41.158 -0.322,3.704 -1.372,3.626 -2.502,2.234 l -1,-1.052 c 0,0 2.8,11.996 -4.64,33.654 L 51.002,131.766" />
            <path
               style="fill:#bd9174"
               inkscape:connector-curvature="0"
               id="path63"
               d="m 82.456,23.276 c -8.7,2.736 -22.98,9.07 -33.556,22.946 -3.76,4.936 -2.17,4.504 0.95,4 15.776,-20.118 41.538,-23.018 41.538,-23.018 4.688,-1.488 0.64,-4.772 -2.874,-4.696 -3.514,0.076 -6.058,0.768 -6.058,0.768" />
            <path
               style="fill:#bd9174"
               inkscape:connector-curvature="0"
               id="path65"
               d="m 84.498,19.834 c 4.996,-3.774 17.216,-8.676 30.988,-10.48 21.382,-2.8 39.71,3.5 45.82,11.9 0,0 34.66,1.012 47.464,35.11 l 1.652,0.252 c 1.652,0.032 2.69,-0.906 1.58,-4.092 C 199.458,16.45 162.3,15.422 162.3,15.422 c -6.3,-8.4 -25.2,-14.7 -47.25,-11.9 -16.066,2.04 -30.098,8.05 -33.598,11.9 -1.748,1.922 0.428,3.406 3.046,4.412" />
          </g>
          <path
             style="fill:#bd9174"
             inkscape:connector-curvature="0"
             id="path67"
             d="m 1634.638,-1196.7896 c -16.4152,34.2692 -40.2959,93.2607 -43.3726,151.7817 -0.8326,15.7817 4.8322,11.7911 11.0309,7.3027 9.8817,-83.9672 72.9544,-177.0289 72.9544,-177.0289 8.0447,-14.3972 -24.3151,-7.918 -40.6127,17.9445" />
          <path
             style="fill:#bd9174"
             inkscape:connector-curvature="0"
             id="path69"
             d="m 2336.4098,-1197.7669 c -5.4295,-3.3844 -24.8852,-18.6593 -32.2421,-14.1348 -7.348,4.5246 7.3569,20.9217 7.3569,20.9217 22.6229,28.8487 60.4846,103.26 57.7518,188.4579 4.9861,5.95438 9.5921,6.01772 11.0219,-10.4156 6.2349,-71.7327 -23.5278,-149.1936 -43.8885,-184.8292" />
          <path
             style="fill-opacity:0;stroke:#1a1919;stroke-width:14.4786644;stroke-linecap:round;stroke-linejoin:round"
             inkscape:connector-curvature="0"
             id="path71"
             d="m 2063.8037,-973.33851 c 7.8366,-31.36439 31.3554,-60.52079 66.629,-57.48939 32.5408,2.8143 69.2352,39.20102 73.1625,92.75398" />
          <path
             style="fill:#d9a685"
             inkscape:connector-curvature="0"
             id="path73"
             d="m 2376.4886,-862.58578 c 0,0 -42.7483,33.41857 -43.9428,55.20896 -1.1854,21.79944 -3.5653,124.96897 -3.5653,124.96897 0,0 44.6305,-28.30579 61.2628,-71.90467 16.6233,-43.58983 19.501,-115.53069 -13.7547,-108.27326" />
          <path
             style="fill:#d9a685"
             inkscape:connector-curvature="0"
             id="path75"
             d="m 1596.0162,-862.58578 c 0,0 42.7573,33.41857 43.9427,55.20896 1.1945,21.79944 3.5654,124.96897 3.5654,124.96897 0,0 -44.4133,-28.30579 -61.0366,-71.90467 -16.6324,-43.58983 -19.7272,-115.53069 13.5285,-108.27326" />
          <path
             style="fill:#d9a685"
             inkscape:connector-curvature="0"
             id="path77"
             d="m 1906.9545,-386.35535 160.6227,0 -1.0316,17.32915 c -86.1209,56.57538 -168.6131,30.65857 -168.6131,30.65857 l 9.022,-47.98772" />
          <path
             style="fill:#f9d8bb"
             inkscape:connector-curvature="0"
             id="path79"
             d="m 1814.9517,-1260.7762 c -156.2339,96.7356 -186.8743,330.6565 -186.8743,508.46355 0,235.8303 160.6045,378.35465 358.6908,378.35465 198.0953,0 358.6908,-142.52435 358.6908,-378.35465 0,-198.03194 -38.9929,-465.68815 -245.9563,-535.86445 -39.0834,21.8628 -99.2694,36.1152 -141.2303,34.5316 -45.7888,-1.7374 -2.3709,-25.3286 12.6688,-45.1281 0,0 -53.0462,31.672 -155.9895,37.9974" />
          <path
             style="fill:#fffffe"
             inkscape:connector-curvature="0"
             id="path81"
             d="m 1773.1083,-941.04204 c 4.2984,-103.16046 113.5761,-110.22786 132.2445,-46.47652 4.3255,12.57834 9.3569,69.25327 -7.185,101.50449 -14.0081,27.33753 -49.9061,32.42316 -79.7774,21.25649 -29.4732,-11.03093 -43.8523,-35.41843 -45.2821,-76.28446" />
          <path
             style="fill:#d6e5eb"
             inkscape:connector-curvature="0"
             id="path83"
             d="m 1852.6686,-1003.7347 c 18.1345,0 35.2103,5.63767 50.431,15.39267 -22.2157,-55.61617 -96.9618,-54.79267 -122.8967,18.30646 19.691,-21.03931 44.9381,-33.69913 72.4657,-33.69913" />
          <path
             style="fill:#552200"
             inkscape:connector-curvature="0"
             id="path85"
             d="m 1896.186,-942.23653 c 0,28.49582 -15.0849,51.60739 -33.69,51.60739 -18.6051,0 -33.6901,-23.11157 -33.6901,-51.60739 0,-28.50487 15.085,-51.60739 33.6901,-51.60739 18.6051,0 33.69,23.10252 33.69,51.60739" />
          <path
             style="fill:#fffffe"
             inkscape:connector-curvature="0"
             id="path87"
             d="m 2200.4461,-941.04204 c -4.2983,-103.16046 -113.567,-110.22786 -132.2445,-46.47652 -4.3074,12.57834 -9.3568,69.25327 7.1941,101.50449 13.9991,27.33753 49.8971,32.42316 79.7774,21.25649 29.4641,-11.03093 43.8433,-35.41843 45.273,-76.28446" />
          <path
             style="fill:#d6e5eb"
             inkscape:connector-curvature="0"
             id="path89"
             d="m 2120.0895,-1003.7347 c -18.1254,0 -35.2103,5.63767 -50.431,15.39267 22.2067,-55.61617 96.9618,-54.79267 122.8967,18.30646 -19.6819,-21.03931 -44.9291,-33.69913 -72.4657,-33.69913" />
          <path
             style="fill:#552200;fill-opacity:1"
             inkscape:connector-curvature="0"
             id="path91"
             d="m 2077.3684,-942.23653 c 0,28.49582 15.085,51.60739 33.6991,51.60739 18.596,0 33.681,-23.11157 33.681,-51.60739 0,-28.50487 -15.085,-51.60739 -33.681,-51.60739 -18.6141,0 -33.6991,23.10252 -33.6991,51.60739" />
          <path
             style="fill:#fffffe"
             inkscape:connector-curvature="0"
             id="path93"
             d="m 1895.2721,-961.01355 c 0,5.4295 -4.407,9.83644 -9.8455,9.83644 -5.4386,0 -9.8455,-4.40694 -9.8455,-9.83644 0,-5.4476 4.4069,-9.84549 9.8455,-9.84549 5.4385,0 9.8455,4.39789 9.8455,9.84549" />
          <path
             style="fill:#fffffe"
             inkscape:connector-curvature="0"
             id="path95"
             d="m 2142.3143,-961.01355 c 0,5.4295 -4.416,9.83644 -9.8455,9.83644 -5.4386,0 -9.8455,-4.40694 -9.8455,-9.83644 0,-5.4476 4.4069,-9.84549 9.8455,-9.84549 5.4295,0 9.8455,4.39789 9.8455,9.84549" />
          <path
             style="fill:#de737e"
             inkscape:connector-curvature="0"
             id="path97"
             d="m 1818.1551,-682.14542 c 0,0 43.626,195.83299 167.9253,195.83299 124.2903,0 169.5452,-195.83299 169.5452,-195.83299 0,0 -58.8739,19.18423 -168.0068,19.18423 -109.0424,0 -169.4637,-19.18423 -169.4637,-19.18423" />
          <path
             style="fill:#c35557"
             inkscape:connector-curvature="0"
             id="path99"
             d="m 1984.3882,-623.37109 c 52.4852,0 100.4096,11.8906 137.1221,31.49109 23.9259,-46.27743 34.1153,-90.26542 34.1153,-90.26542 0,0 -58.8739,19.18423 -168.0068,19.18423 -109.0424,0 -169.4637,-19.18423 -169.4637,-19.18423 0,0 9.5649,42.8659 32.4503,88.49179 36.26,-18.55079 82.8903,-29.71746 133.7828,-29.71746" />
          <path
             style="fill:#d9a685"
             inkscape:connector-curvature="0"
             id="path109"
             d="m 2363.3401,194.68251 0.2172,-18.10738 161.7539,-87.098218 9.0491,64.475308 -171.9341,117.63915 0.9139,-76.90886" />
          <path
             style="fill:#d9a685"
             inkscape:connector-curvature="0"
             id="path111"
             d="m 1986.7682,-792.43665 c -22.7496,0 -43.3817,-5.42045 -58.6477,-15.29309 8.461,24.84901 31.4911,39.27338 58.6477,39.27338 27.1565,0 50.1776,-14.42437 58.6476,-39.26433 -15.275,9.86359 -35.889,15.28404 -58.6476,15.28404" />
          <path
             inkscape:connector-curvature="0"
             style="fill-opacity:0;stroke:#1a1919;stroke-width:14.4786644;stroke-linecap:round;stroke-linejoin:round"
             d="m 1818.1551,-682.14542 c 0,0 43.626,195.83299 167.9253,195.83299 124.2903,0 169.5452,-195.83299 169.5452,-195.83299 0,0 -58.8739,19.18423 -168.0068,19.18423 -109.0424,0 -169.4637,-19.18423 -169.4637,-19.18423 z"
             id="path4387" />
          <path
             style="fill:#66462b"
             inkscape:connector-curvature="0"
             id="path141"
             d="m 1884.9379,-1076.0556 c 1.3212,-2.7962 -3.7373,-8.1171 -13.4923,-13.438 -9.7188,-5.2757 -24.2789,-10.1803 -40.4045,-11.7277 -16.0894,-1.6922 -33.5453,0.2534 -47.7344,4.796 -14.2614,4.4251 -25.0661,11.0129 -30.3056,14.714 -10.6418,7.2846 -21.6637,17.8087 -27.1294,28.0886 -5.529,10.2979 -5.7734,19.2657 1.4207,22.8763 7.3298,3.7192 13.5195,-0.7692 20.0801,-7.0493 6.5335,-6.3344 14.0986,-14.5782 22.1886,-20.1525 3.9725,-2.8053 11.9449,-7.9271 22.7586,-11.9721 10.7685,-4.1264 24.3966,-6.8683 37.8527,-7.3298 27.066,-1.4569 52.0417,7.0131 54.7655,1.1945" />
          <path
             style="fill-opacity:0;stroke:#1a1919;stroke-width:14.4786644;stroke-linecap:round;stroke-linejoin:round"
             inkscape:connector-curvature="0"
             id="path143"
             d="m 1614.8203,-911.70465 c -17.2205,-2.24419 -58.5119,7.85468 -63.5975,76.29351 -6.3887,86.06662 19.2566,158.59568 89.3243,194.22224 m 508.4726,287.25671 c 13.2027,7.53795 13.7909,31.29201 -7.9271,48.82929 -28.2695,22.81295 -67.4343,40.06066 -154.4692,40.06066 -87.0258,0 -127.5751,-18.48745 -154.4602,-40.06066 -26.7674,-21.48271 -27.3918,-47.1552 -9.0401,-51.08253" />
          <path
             style="fill-opacity:0;stroke:#1a1919;stroke-width:10.85899925;stroke-linecap:round;stroke-linejoin:round"
             inkscape:connector-curvature="0"
             id="path145"
             d="m 2190.673,-345.29024 c 16.5419,9.58307 17.2839,39.73489 -9.936,61.99583 -35.4184,28.96638 -84.492,50.85631 -193.5435,50.85631 -109.0425,0 -159.8626,-23.47353 -193.5526,-50.85631 -33.5362,-27.27418 -34.3235,-59.86023 -11.3205,-64.84632" />
          <path
             inkscape:connector-curvature="0"
             style="fill-opacity:0;stroke:#1a1919;stroke-width:14.4786644;stroke-linecap:round;stroke-linejoin:round"
             d="m 2069.4142,-367.94935 c 0,0 202.5927,27.33753 309.3095,72.82768 50.4401,21.50082 94.5548,57.69748 126.2178,128.19048 24.7223,55.04607 61.0909,234.916335 61.0909,234.916335 L 2368.0819,172.05055"
             id="path4399" />
          <path
             inkscape:connector-curvature="0"
             style="fill-opacity:0;stroke:#1a1919;stroke-width:14.4786644;stroke-linecap:round;stroke-linejoin:round"
             d="m 2370.5252,-142.03694 c 0,0 -7.1308,307.34586 -10.0536,437.0566"
             id="path4397" />
          <path
             inkscape:connector-curvature="0"
             style="fill-opacity:0;stroke:#1a1919;stroke-width:14.4786644;stroke-linecap:round;stroke-linejoin:round"
             d="m 2525.3112,89.476912 c 0,0 21.4917,159.165768 26.0163,205.542748"
             id="path4395" />
          <path
             style="fill-opacity:0;stroke:#1a1919;stroke-width:13.57374763;stroke-linecap:round;stroke-linejoin:round"
             inkscape:connector-curvature="0"
             id="path151"
             d="m 1954.7975,-909.68669 c -20.5597,18.74988 -30.2061,54.08687 -30.2061,80.15751 0,38.07889 27.8352,61.07282 62.1768,61.07282 34.3416,0 62.1677,-22.99393 62.1677,-61.07282 0,-26.07064 -9.6373,-61.40763 -30.2061,-80.15751" />
          <path
             style="fill-opacity:0;stroke:#1a1919;stroke-width:14.4786644;stroke-linecap:round;stroke-linejoin:round"
             inkscape:connector-curvature="0"
             id="path153"
             d="m 1908.1943,-973.52855 c -7.8547,-31.36445 -31.3554,-60.52985 -66.6471,-57.49835 -32.5318,2.8142 -69.2352,39.20094 -73.1625,92.76295" />
          <path
             style="fill:#66462b"
             inkscape:connector-curvature="0"
             id="path155"
             d="m 2087.042,-1075.8565 c 2.7238,5.8186 27.7085,-2.6514 54.7655,-1.1945 13.4652,0.4615 27.0932,3.2034 37.8617,7.3298 10.8138,4.045 18.7861,9.1668 22.7587,11.963 8.0899,5.5834 15.646,13.8271 22.1885,20.1525 6.5516,6.2892 12.7503,10.7685 20.0801,7.0584 7.1941,-3.6197 6.9498,-12.5784 1.4117,-22.8763 -5.4566,-10.2799 -16.4876,-20.8041 -27.1203,-28.0886 -5.2395,-3.7011 -16.0442,-10.2889 -30.3057,-14.714 -14.1891,-4.5427 -31.6449,-6.4882 -47.7343,-4.787 -16.1257,1.5384 -30.6858,6.443 -40.4046,11.7187 -9.755,5.3118 -14.8134,10.6418 -13.5013,13.438" />
          <path
             d="m 2063.8037,-973.33851 c 7.8366,-31.36439 31.3554,-60.52079 66.629,-57.48939 32.5408,2.8143 69.2352,39.20102 73.1625,92.75398 m -388.6435,-322.70228 c -156.2339,96.7356 -186.8743,330.6565 -186.8743,508.46355 0,235.8303 160.6045,378.35465 358.6908,378.35465 198.0953,0 358.6908,-142.52435 358.6908,-378.35465 0,-198.03194 -38.9929,-465.68815 -245.9563,-535.86445 -39.0834,21.8628 -99.2694,36.1152 -141.2303,34.5316 -45.7888,-1.7374 -2.3709,-25.3286 12.6688,-45.1281 0,0 -53.0462,31.672 -155.9895,37.9974 z m 508.3368,53.0553 c 0,0 49.0918,28.5048 36.432,-7.909 -56.7564,-163.2198 -224.8808,-167.8711 -224.8808,-167.8711 -28.5049,-38.0065 -114.0195,-66.5114 -213.7866,-53.8425 -72.6919,9.2301 -136.1809,36.4229 -152.0169,53.8425 -15.8451,17.4197 39.5901,26.9122 39.5901,26.9122 0,0 -113.2865,15.8904 -186.8743,112.445 -25.3377,33.2556 28.5139,17.4196 28.5139,17.4196 0,0 -54.2497,91.4599 -59.0005,181.7163 -1.3212,25.1657 20.1977,2.3799 20.1977,2.3799 0,0 -13.8633,87.5326 19.7996,185.53506 m 733.1905,-150.49666 c 0,0 12.6688,54.27689 -20.9941,152.2703 m -6.4882,-345.841 c 0,0 52.829,78.954 43.3274,188.2226 -3.5744,41.04705 -26.9213,-20.5868 -26.9213,-20.5868 m -771.6133,174.99275 c 0,0 19.0033,-14.26149 47.5082,34.43207 m 729.4532,-87.60497 c 17.2115,-2.24419 58.5028,7.85468 63.5885,76.29351 6.3887,86.06662 -19.2567,158.59568 -89.3244,194.22224 m 58.7834,-217.34285 c 0,0 -19.0032,-14.26149 -47.5081,34.43207 m -438.5678,441.43639 c 0,0 -0.4615,29.88939 -5.8458,40.04255 m 168.1878,-39.12859 c 0,0 0.914,28.06147 5.8729,39.12859"
             id="path159"
             inkscape:connector-curvature="0"
             style="fill-opacity:0;stroke:#1a1919;stroke-width:14.4786644;stroke-linecap:round;stroke-linejoin:round" />
          <path
             d="m 2414.4589,-66.621191 c 0,0 -20.3606,122.163733 -49.7704,162.884977"
             id="path161"
             inkscape:connector-curvature="0"
             style="fill-opacity:0;stroke:#1a1919;stroke-width:11.76391506;stroke-linecap:round;stroke-linejoin:round" />
          <path
             d="m 1904.3574,-367.94935 c 0,0 -202.5927,27.33753 -309.3095,72.82768 -50.44,21.50082 -94.5547,57.69748 -126.2178,128.19048 -24.7313,55.04607 -61.0909,234.916335 -61.0909,234.916335 l 197.9505,104.065405 m -2.4523,-314.08749 c 0,0 7.1307,307.34586 10.0627,437.0566 M 1448.4605,89.476912 c 0,0 -21.4918,159.165768 -26.0164,205.542748"
             id="path163"
             inkscape:connector-curvature="0"
             style="fill-opacity:0;stroke:#1a1919;stroke-width:14.4786644;stroke-linecap:round;stroke-linejoin:round" />
          <path
             style="fill-opacity:0;stroke:#1a1919;stroke-width:11.76391506;stroke-linecap:round;stroke-linejoin:round"
             inkscape:connector-curvature="0"
             id="path165"
             d="m 1559.3128,-66.621191 c 0,0 20.3606,122.163733 49.7704,162.884977" />
        </g>
        <g
           id="g4358">
          <path
             style="fill:#f9d8bb"
             inkscape:connector-curvature="0"
             id="path11"
             d="m 385.71003,294.7212 -9.05012,-112.76393 156.60192,0 0,112.76393 -147.5518,0" />
          <path
             style="fill:#f9d8bb"
             inkscape:connector-curvature="0"
             id="path13"
             d="m 1303.5862,181.95727 -9.0596,112.76393 -169.5414,0 0,-130.28029 178.601,17.51636" />
          <path
             style="opacity:1;fill:#9db7d4;fill-opacity:1"
             inkscape:connector-curvature="0"
             id="path15"
             d="m 530.89806,294.7212 c -8.56042,-25.68125 -14.43687,-49.81804 -17.64821,-75.37686 l -4.43559,-20.88779 -159.20112,-19.88013 c -1.58212,-91.819629 34.5336,-323.33695 105.02283,-363.00303 81.46049,-45.84389 223.40894,-91.02857 308.3162,-111.65267 l 154.34174,0 c 84.89789,20.6241 226.85569,65.80878 308.31619,111.65267 70.4798,39.66608 106.605,271.183401 105.0134,363.00303 l -159.1917,19.88013 -4.5203,21.434 c -3.2208,25.35164 -9.069,49.32833 -17.5729,74.83065 l -618.44054,0" />
          <path
             style="fill:#3b70aa;fill-opacity:1"
             inkscape:connector-curvature="0"
             id="path17"
             d="m 807.79782,164.44091 c -168.2324,0 -323.73248,-33.92147 -450.33998,-91.320512 -5.64103,41.408302 -8.29673,79.172072 -7.8447,105.456022 l 159.20112,19.88013 4.43559,20.88779 c 3.21134,25.55882 9.08779,49.69561 17.64821,75.37686 l 618.44054,0 c 8.5039,-25.50232 14.3521,-49.47901 17.5729,-74.83065 l 4.5203,-21.434 159.1917,-19.88013 c 0.5651,-32.56536 -3.6351,-82.713005 -12.4121,-135.638783 -135.7989,75.546373 -314.494,121.503273 -510.41358,121.503273" />
          <path
             style="fill:#f9d8bb"
             inkscape:connector-curvature="0"
             id="path19"
             d="m 920.14738,-275.45518 c -26.27454,-28.33695 -21.22682,-107.33009 -21.22682,-107.33009 l -117.59505,0 c 0,0 5.03831,78.99314 -21.22681,107.33009 l 160.04868,0" />
          <g
             transform="matrix(4.7086991,0,0,4.7086991,-1093.4242,-1516.0938)"
             id="g21">
            <path
               style="fill:#f9d8bb"
               inkscape:connector-curvature="0"
               id="path23"
               d="m 372.734,265.926 c 4.808,7.47 19.954,12.926 37.898,12.926 17.942,0 33.09,-5.454 37.9,-12.922 l -21.51,-6.832 -32.778,0 -21.51,6.828" />
            <path
               style="fill:#dbb460"
               inkscape:connector-curvature="0"
               id="path25"
               d="m 432.128,237.48 c 22.334,16 49.584,0.998 49.584,0.998 -4,1 -10.748,-0.334 -12.748,-4 -2.286,-4.192 2.876,-8.572 12.748,-6.75 16.25,3 28.5,-4 28.5,-4 0,0 -18.25,-10.75 -5.25,-19 39.188,-24.868 18.162,-69.176 8.75,-86 -8.25,-14.75 -8.25,-23.5 -10.25,-31.5 -5.862,-23.45 -9.25,-37.25 -24,-46.25 -11.738,-7.162 -22.75,-4 -27.5,-0.75 -2.164,-13.416 -12.164,-23.748 -33.498,-24.082 -19.734,-0.308 -44.602,8.742 -55,24.334 -7.334,11 -23.666,44.666 -42,62.666 -16.15,15.856 -27,49.334 -7,76.334 11.906,16.07 27.666,30.332 5,35.666 0,0 10.998,10 26.666,8 0,0 -0.332,4.334 -6.666,7.334 0,0 23.666,13.998 50.666,7.332 l 41.998,-0.332" />
          </g>
          <path
             style="fill:#fad79d"
             inkscape:connector-curvature="0"
             id="path27"
             d="m 1269.9378,-498.0448 c -8.325,16.45219 1.1301,33.20574 13.335,46.26767 16.2356,-5.48092 25.7378,-10.84884 25.7378,-10.84884 0,0 -25.8319,-15.24677 -39.0728,-35.41883" />
          <path
             style="fill:#fad79d"
             inkscape:connector-curvature="0"
             id="path29"
             d="m 1125.0982,-401.43171 c -8.3155,6.50742 -10.6981,15.60462 -5.8199,24.55115 0.7722,1.42203 1.9117,2.65571 2.9759,3.92706 31.7366,-8.7676 52.5585,-20.21916 52.5585,-20.21916 -14.2674,3.5692 -35.9368,0.79107 -49.7145,-8.25905" />
          <path
             style="fill:#fad79d"
             inkscape:connector-curvature="0"
             id="path31"
             d="m 463.25289,-535.89333 c -4.90647,14.09785 -20.55818,25.36106 -52.41724,32.85731 0,0 13.82474,12.47805 37.23639,23.30806 24.45698,-13.72115 25.67183,-33.09274 15.18085,-56.16537" />
          <path
             style="fill:#ffeca5"
             inkscape:connector-curvature="0"
             id="path33"
             d="m 440.18026,-989.18095 c 132.31445,-101.00155 169.44725,-240.93475 207.26752,-290.36665 87.67598,-114.5815 169.12705,-117.1148 246.61341,-113.0182 100.32354,5.3208 118.64041,46.3054 128.83001,109.4773 22.3663,-15.3033 82.3928,-43.1788 137.6635,-9.4551 69.4533,42.3783 93.5525,111.8787 121.1643,222.3071 9.4174,37.6696 -2.9383,78.94605 27.2916,152.56185 21.66,52.72801 70.0843,89.59713 82.1291,155.1328 -5.8011,-79.01197 -42.8962,-153.81436 -65.6487,-194.49752 -38.8467,-69.45333 -38.8467,-110.65443 -48.2641,-148.32403 -27.6024,-110.419 -43.5555,-175.399 -113.0088,-217.7773 -55.2707,-33.7237 -107.1229,-18.8348 -129.4892,-3.5316 -10.1897,-63.1719 -57.27665,-111.8221 -157.73204,-113.3948 -92.92147,-1.4503 -210.0174,41.1634 -258.97845,114.5814 -34.5336,51.7957 -111.43607,210.3188 -197.76536,295.0754 -56.23129,55.20477 -106.73679,191.70054 -70.68699,290.13118 -5.10423,-87.90199 18.83479,-194.10199 90.6142,-248.90183" />
          <path
             style="fill:#fad79d"
             inkscape:connector-curvature="0"
             id="path35"
             d="m 540.88992,-430.23954 c -11.99777,1.53504 -23.34573,1.45028 -34.0439,0.44262 3.80463,2.11892 13.64581,7.34557 28.28045,13.44805 5.25491,-7.80703 5.76345,-13.89067 5.76345,-13.89067" />
          <path
             style="fill:#be8f43"
             inkscape:connector-curvature="0"
             id="path37"
             d="m 1284.2899,-552.09125 c 80.4528,-51.06113 106.9911,-119.5162 107.6785,-187.05778 -126.3155,142.56999 -352.2672,237.59154 -610.09668,237.59154 -113.9976,0 -221.70439,-18.64645 -317.39457,-51.68268 3.58803,22.30981 -9.60575,39.84501 -53.6415,50.20415 0,0 51.78627,47.08699 125.56217,37.66959 0,0 -1.56329,20.4075 -31.38819,34.5336 0,0 111.43607,65.91237 238.57095,34.52418 l 197.75594,-1.56329 c 105.16408,75.33919 233.47618,4.69928 233.47618,4.69928 -18.8348,4.7087 -50.6091,-1.5727 -60.0265,-18.83479 -10.7641,-19.73887 13.5422,-40.36297 60.0265,-31.78372 76.5163,14.1261 134.1979,-18.8348 134.1979,-18.8348 0,0 -85.9338,-50.61851 -24.7207,-89.46528" />
          <path
             style="fill:#f9d8bb"
             inkscape:connector-curvature="0"
             id="path39"
             d="m 526.98984,-801.25677 c 19.51285,-30.31461 48.70678,-63.54861 89.45586,-100.44597 132.62522,-120.07186 120.45794,-207.19216 133.90599,-271.93676 13.44804,-64.7446 45.41069,-87.111 98.38356,-90.6425 54.49848,-3.6351 129.48922,50.6185 135.3751,102.4142 17.65765,-24.7207 37.66955,-55.3272 72.98485,-50.6185 35.3152,4.7087 61.2131,50.6185 63.5674,120.0718 2.1472,63.106 -20.0214,177.73458 35.9745,295.30138 l 5.5751,13.12786 c -6.2532,74.60462 -28.6948,175.8134 -50.2513,222.87214 -33.8084,73.76648 -161.34824,188.34797 -271.84257,188.34797 -110.48492,0 -238.02474,-114.58149 -271.8332,-188.34797 -21.56584,-47.05874 -44.01692,-148.26752 -50.25124,-222.87214 l 8.95595,-17.27151" />
          <path
             style="fill:#be8f43"
             inkscape:connector-curvature="0"
             id="path41"
             d="m 1057.0952,-1212.4863 c -35.3153,-4.7087 -55.3272,25.8978 -72.98485,50.6185 -5.88588,-51.7957 -80.87662,-106.0493 -135.3751,-102.4142 -52.97287,3.5315 -84.93552,25.8979 -98.38356,90.6425 -0.18835,0.9135 -0.35786,1.8458 -0.53679,2.7781 73.71939,-0.5085 240.6051,4.8029 369.1808,56.316 -6.5827,-56.9281 -30.4935,-93.7502 -61.9005,-97.9409" />
          <path
             style="fill:#fffffe"
             inkscape:connector-curvature="0"
             id="path47"
             d="m 625.83485,-823.05805 c 0,0 -2.50503,-16.51812 5.15132,-43.54605 19.72945,-69.62282 113.64916,-62.25842 125.12897,-13.50455 7.84469,37.54717 12.29912,63.04948 0,100.59665 -8.97478,27.40463 -40.60782,39.15754 -67.18372,32.65012 -35.23991,-8.62634 -58.18069,-38.66784 -63.09657,-76.19617" />
          <path
             style="fill:#d6e5eb"
             inkscape:connector-curvature="0"
             id="path49"
             d="m 692.56653,-895.50609 c 24.01437,0 46.18292,7.75052 64.3585,20.78419 -0.39553,-1.80814 -0.73455,-3.53152 -1.14892,-5.38675 -11.52689,-46.75738 -102.15052,-55.25187 -127.76584,5.53743 18.21325,-13.12785 40.45714,-20.93487 64.55626,-20.93487" />
          <path
             style="fill:#ffeca5"
             inkscape:connector-curvature="0"
             id="path51"
             d="m 705.96749,-1363.2118 c 0,0 43.69673,36.8409 168.49609,46.8893 70.41389,5.6504 18.44868,15.0866 -10.39681,18.4016 -31.8308,3.6633 -152.91029,2.1942 -209.15099,-18.4016 l 51.05171,-46.8893" />
          <path
             style="fill:#de737e"
             inkscape:connector-curvature="0"
             id="path113"
             d="m 734.90716,-607.33371 c 0,0 27.18802,141.74126 104.72146,141.74126 77.50519,0 105.71972,-141.74126 105.71972,-141.74126 0,0 -36.70902,13.89066 -104.77798,13.89066 -67.99361,0 -105.6632,-13.89066 -105.6632,-13.89066" />
          <path
             style="fill-opacity:0;stroke:#1a1919;stroke-width:15.06783772;stroke-linecap:round;stroke-linejoin:round"
             inkscape:connector-curvature="0"
             id="path115"
             d="m 816.3394,-848.88055 c 4.15307,15.55754 12.47805,58.50087 4.60511,99.84325 m 13.28794,-11.50806 c 0,0 -37.44357,32.44294 -38.87501,41.04102 -1.43145,8.58867 14.19201,48.15116 28.43112,59.8664" />
          <path
             style="fill:#3b70aa;fill-opacity:1"
             inkscape:connector-curvature="0"
             id="path117"
             d="m 750.35169,-834.34009 c 0,29.57063 -17.19617,53.53791 -38.40415,53.53791 -21.20798,0 -38.40415,-23.96728 -38.40415,-53.53791 0,-29.5518 17.19617,-53.51908 38.40415,-53.51908 21.20798,0 38.40415,23.96728 38.40415,53.51908" />
          <path
             style="fill:#fffffe"
             inkscape:connector-curvature="0"
             id="path119"
             d="m 1053.9121,-823.05805 c 0,0 2.4862,-16.51812 -5.1325,-43.54605 -19.6447,-69.62282 -113.1406,-62.25842 -124.58274,-13.50455 -7.79761,37.54717 -12.24262,63.04948 0,100.59665 8.93711,27.40463 40.43831,39.15754 66.89178,32.65012 35.08926,-8.62634 57.91696,-38.66784 62.82346,-76.19617" />
          <path
             style="fill:#d6e5eb"
             inkscape:connector-curvature="0"
             id="path121"
             d="m 987.67012,-895.50609 c -24.00494,0 -46.1735,7.75052 -64.3585,20.78419 0.39554,-1.80814 0.74398,-3.53152 1.14893,-5.38675 11.53631,-46.75738 102.15995,-55.25187 127.77525,5.53743 -18.2132,-13.12785 -40.4571,-20.93487 -64.56568,-20.93487" />
          <path
             style="fill:#374680"
             inkscape:connector-curvature="0"
             id="path123"
             d="m 929.89439,-834.34009 c 0,29.57063 17.19616,53.53791 38.40415,53.53791 21.20798,0 38.40416,-23.96728 38.40416,-53.53791 0,-29.5518 -17.19618,-53.51908 -38.40416,-53.51908 -21.20799,0 -38.40415,23.96728 -38.40415,53.51908" />
          <path
             style="fill:#3b70aa"
             inkscape:connector-curvature="0"
             id="path125"
             d="m 929.89439,-834.34009 c 0,29.57063 17.19616,53.53791 38.40415,53.53791 21.20798,0 38.40416,-23.96728 38.40416,-53.53791 0,-29.5518 -17.19618,-53.51908 -38.40416,-53.51908 -21.20799,0 -38.40415,23.96728 -38.40415,53.51908" />
          <path
             style="fill:#fffffe"
             inkscape:connector-curvature="0"
             id="path127"
             d="m 749.85257,-849.83171 c 0,6.14014 -4.56744,11.12195 -10.19905,11.12195 -5.62218,0 -10.19904,-4.98181 -10.19904,-11.12195 0,-6.13073 4.57686,-11.11253 10.19904,-11.11253 5.63161,0 10.19905,4.9818 10.19905,11.11253" />
          <path
             style="fill:#fffffe"
             inkscape:connector-curvature="0"
             id="path129"
             d="m 1006.4767,-849.83171 c 0,6.14014 -4.5675,11.12195 -10.19907,11.12195 -5.62219,0 -10.19905,-4.98181 -10.19905,-11.12195 0,-6.13073 4.57686,-11.11253 10.19905,-11.11253 5.63157,0 10.19907,4.9818 10.19907,11.11253" />
          <path
             style="fill:#c35557"
             inkscape:connector-curvature="0"
             id="path131"
             d="m 840.12775,-560.74584 c 30.48411,0 58.80223,8.08955 82.51524,21.87662 15.94365,-34.61836 22.70535,-68.46449 22.70535,-68.46449 0,0 -36.70902,13.89066 -104.77798,13.89066 -67.99361,0 -105.6632,-13.89066 -105.6632,-13.89066 0,0 6.54509,33.97797 22.29098,68.67167 23.79776,-13.91892 52.28539,-22.0838 82.92961,-22.0838" />
          <path
             style="fill:#d9a685"
             inkscape:connector-curvature="0"
             id="path133"
             d="m 781.71163,-382.28614 c 0,0 55.60031,18.26033 116.80399,0 l 0.5462,34.00622 c 0,0 -47.12466,43.43304 -121.58802,38.47949 l 4.23783,-72.48571" />
          <path
             style="fill:#d9a685"
             inkscape:connector-curvature="0"
             id="path135"
             d="m 376.65991,184.84841 132.15435,13.60814 12.48747,63.5486 -140.12147,-23.66592 -4.52035,-53.49082" />
          <path
             style="fill:#d9a685"
             inkscape:connector-curvature="0"
             id="path137"
             d="m 1301.5426,184.84841 -132.1638,13.60814 -12.4874,63.5486 140.1214,-23.66592 4.5298,-53.49082" />
          <path
             inkscape:connector-curvature="0"
             style="fill-opacity:0;stroke:#1a1919;stroke-width:15.06783772;stroke-linecap:round;stroke-linejoin:round"
             d="m 734.90716,-607.33371 c 0,0 27.18802,141.74126 104.72146,141.74126 77.50519,0 105.71972,-141.74126 105.71972,-141.74126 0,0 -36.70902,13.89066 -104.77798,13.89066 -67.99361,0 -105.6632,-13.89066 -105.6632,-13.89066 z"
             id="path4385" />
          <path
             inkscape:connector-curvature="0"
             style="fill-opacity:0;stroke:#1a1919;stroke-width:15.06783772;stroke-linecap:round;stroke-linejoin:round"
             d="m 1162.2122,-783.98526 c -6.2532,74.60462 -28.6948,175.8134 -50.2513,222.87214 -33.8084,73.76648 -161.34824,188.34797 -271.84257,188.34797 -110.48492,0 -238.02474,-114.58149 -271.8332,-188.34797 -21.56584,-47.05874 -44.01692,-148.26752 -50.25124,-222.87214"
             id="path139" />
          <path
             inkscape:connector-curvature="0"
             style="fill-opacity:0;stroke:#1a1919;stroke-width:15.06783772;stroke-linecap:round;stroke-linejoin:round"
             d="m 816.3394,-848.88055 c 4.15307,15.55754 12.47805,58.50087 4.60511,99.84325"
             id="path4393" />
          <path
             inkscape:connector-curvature="0"
             style="fill-opacity:0;stroke:#1a1919;stroke-width:15.06783772;stroke-linecap:round;stroke-linejoin:round"
             d="m 834.23245,-760.54536 c 0,0 -37.44357,32.44294 -38.87501,41.04102 -1.43145,8.58867 14.19201,48.15116 28.43112,59.8664"
             id="path4391" />
          <path
             inkscape:connector-curvature="0"
             style="fill-opacity:0;stroke:#1a1919;stroke-width:15.06783772;stroke-linecap:round;stroke-linejoin:round"
             d="m 755.77611,-880.10865 c -17.06432,-47.32242 -104.81564,-62.05123 -127.93535,11.1502 -8.43799,26.71716 -0.84757,47.82155 -0.84757,47.82155"
             id="path147" />
          <path
             style="fill-opacity:0;stroke:#1a1919;stroke-width:13.18435764;stroke-linecap:round;stroke-linejoin:round"
             inkscape:connector-curvature="0"
             id="path149"
             d="m 620.4481,-838.70976 -21.1609,-7.50567 m 460.5108,7.50567 21.1609,-7.50567" />
          <path
             style="fill-opacity:0;stroke:#1a1919;stroke-width:15.06783772;stroke-linecap:round;stroke-linejoin:round"
             inkscape:connector-curvature="0"
             id="path167"
             d="m 924.46055,-880.10865 c 17.07374,-47.32242 104.81565,-62.05123 127.93535,11.1502 8.4474,26.71716 0.857,47.82155 0.857,47.82155 m -545.88892,164.28651 c -29.81548,-62.78579 -8.1743,-138.69002 109.08172,-244.85235 132.62522,-120.07186 120.45794,-207.19216 133.90599,-271.93676 13.44804,-64.7446 45.41069,-87.111 98.38356,-90.6425 54.49848,-3.6351 129.48922,50.6185 135.3751,102.4142 17.65765,-24.7207 37.66955,-55.3272 72.98485,-50.6185 35.3152,4.7087 61.2131,50.6185 63.5674,120.0718 2.3544,69.4533 -24.7206,201.29691 55.3272,330.78614 50.6562,81.94078 27.0751,128.31205 27.0751,128.31205 m -261.72838,235.44437 c 105.16408,75.33919 233.47618,4.69928 233.47618,4.69928 -18.8348,4.7087 -50.6091,-1.5727 -60.0265,-18.83479 -10.7641,-19.73887 13.5422,-40.36297 60.0265,-31.78372 76.5163,14.1261 134.1979,-18.8348 134.1979,-18.8348 0,0 -85.9338,-50.61851 -24.7207,-89.46528 184.5245,-117.09593 85.5194,-325.72897 41.2011,-404.94812 -38.8467,-69.45333 -38.8467,-110.65443 -48.2641,-148.32403 -27.6024,-110.419 -43.5555,-175.399 -113.0088,-217.7773 -55.2707,-33.7237 -107.1229,-18.8348 -129.4892,-3.5316 -10.1897,-63.1719 -57.27665,-111.8221 -157.73204,-113.3948 -92.92147,-1.4503 -210.0174,41.1634 -258.97845,114.5814 -34.5336,51.7957 -111.43607,210.3188 -197.76536,295.0754 -76.04549,74.66111 -127.13488,232.29894 -32.9609,359.43381 56.06178,75.6688 130.27087,142.82427 23.5435,167.94047 0,0 51.78627,47.08699 125.56217,37.66959 0,0 -1.56329,20.4075 -31.38819,34.5336 0,0 111.43607,65.91237 238.57095,34.52418 M 915.83421,-965.2796 c 24.72067,-36.6619 134.19789,-69.4533 151.85559,16.39569 M 764.40245,-965.2796 c -9.82235,-14.56871 -33.03624,-28.5253 -58.55738,-34.66544 m 75.48044,617.15977 c 0,0 5.03831,78.99314 -21.22681,107.33009 m 8.00478,-20.6241 c -84.90726,20.6241 -232.00702,65.80878 -313.46751,111.65267 -70.48923,39.66608 -106.60495,271.183401 -105.02283,363.00303 l 159.20112,19.88013 m 390.1063,-581.24182 c 0,0 -5.04772,78.99314 21.22682,107.33009 m -42.66082,-986.02042 c 0,0 60.51621,40.589 52.40783,91.5277 m -115.14653,-88.3729 c 0,0 79.39808,23.4493 79.31333,88.3729 m -121.8423,-58.209 c 0,0 62.01356,5.2738 82.2233,51.2119 m 168.44901,23.9767 c 0,0 31.0962,-45.5143 69.9713,-36.7467 m -34.9951,46.7291 c 0,0 30.7666,-19.7671 54.3196,-6.3944 M 464.97627,-144.76053 c 0,0 32.97031,145.44230149 53.05762,219.745573 C 504.58585,172.19143 508.74834,228.2532 530.89806,294.7212 M 1018.578,-263.90945 c -22.64882,35.16457 -93.97619,60.84581 -178.45967,60.84581 -84.4929,0 -155.81085,-25.69066 -178.45028,-60.86464 m -285.00814,445.88555 9.05012,112.76393 m 523.62618,-590.80048 c 84.90726,20.6241 234.81339,65.80878 316.27389,111.65267 70.4798,39.66608 106.605,271.183401 105.0134,363.00303 l -159.1917,19.88013 m 43.8286,-343.21708 c 0,0 -32.9703,145.44230149 -53.0482,219.745573 13.448,97.206387 9.2855,153.268157 -12.8736,219.736157 m 154.2476,-112.76393 -9.0596,112.76393" />
        </g>
      </g>
      <ellipse
         ry="1245.2748"
         rx="1255.6188"
         cy="-347.63791"
         cx="1400"
         id="path4323"
         style="opacity:1;fill:none;fill-opacity:1;stroke:#000000;stroke-width:220;stroke-miterlimit:4;stroke-dasharray:none;stroke-opacity:1" />
      <ellipse
         ry="71.326622"
         rx="71.881012"
         cy="-347.63791"
         cx="1400"
         id="path4325"
         style="opacity:1;fill:#ffffff;fill-opacity:1;stroke:#000000;stroke-width:18.55364905;stroke-miterlimit:4;stroke-dasharray:none;stroke-opacity:1" />
    </g>
  </g>
</svg>
