<?xml version="1.0" encoding="UTF-8" standalone="no"?>
<!-- Created with Inkscape (http://www.inkscape.org/) -->

<svg
   xmlns:dc="http://purl.org/dc/elements/1.1/"
   xmlns:cc="http://creativecommons.org/ns#"
   xmlns:rdf="http://www.w3.org/1999/02/22-rdf-syntax-ns#"
   xmlns:svg="http://www.w3.org/2000/svg"
   xmlns="http://www.w3.org/2000/svg"
   xmlns:sodipodi="http://sodipodi.sourceforge.net/DTD/sodipodi-0.dtd"
   xmlns:inkscape="http://www.inkscape.org/namespaces/inkscape"
   width="1400"
   height="596"
   viewBox="0 0 1400 596.00001"
   id="svg2"
   version="1.1"
   inkscape:version="0.91 r13725"
   sodipodi:docname="16 - Valentines Day Special (header).svg"
   inkscape:export-filename="/Users/davidmarsh/Dropbox/sad_fm/show headers/16 - Valentines Day Special (header).png"
   inkscape:export-xdpi="47.419998"
   inkscape:export-ydpi="47.419998">
  <sodipodi:namedview
     id="base"
     pagecolor="#ffffff"
     bordercolor="#666666"
     borderopacity="1.0"
     inkscape:pageopacity="0.0"
     inkscape:pageshadow="2"
     inkscape:zoom="0.69928571"
     inkscape:cx="700"
     inkscape:cy="298"
     inkscape:document-units="px"
     inkscape:current-layer="layer1"
     showgrid="false"
     units="px"
     inkscape:window-width="1436"
     inkscape:window-height="855"
     inkscape:window-x="4"
     inkscape:window-y="1"
     inkscape:window-maximized="1" />
  <defs
     id="defs4" />
  <metadata
     id="metadata7">
    <rdf:RDF>
      <cc:Work
         rdf:about="">
        <dc:format>image/svg+xml</dc:format>
        <dc:type
           rdf:resource="http://purl.org/dc/dcmitype/StillImage" />
        <dc:title />
      </cc:Work>
    </rdf:RDF>
  </metadata>
  <g
     transform="translate(0,-456.36214)"
     id="layer1"
     inkscape:groupmode="layer"
     inkscape:label="Layer 1">
    <path
       id="path4396"
       d="m -16.976501,699.97242 c -6,-10 -16,-17 -28,-17 -16.999999,0 -30,13 -30,30 0,33 18.000001,38 58,76 40,-38 58,-43 58,-76 0,-17 -13,-30 -30,-30 -11.99999965,0 -22,7 -28,17 z"
       inkscape:connector-curvature="0"
       style="fill:#ff7fff;fill-opacity:0.4107143" />
    <path
       style="fill:#ff7fff;fill-opacity:0.4107143"
       inkscape:connector-curvature="0"
       d="m 927.02381,860.35538 c -6,-10 -16,-16.9999 -28,-16.9999 -17,0 -30,12.9999 -30,29.9999 0,32.99986 18,37.99986 58,75.99996 40.0001,-38.0001 58.00007,-43.0001 58.00007,-75.99996 0,-17 -13,-29.9999 -29.99997,-29.9999 -12,0 -22,6.9999 -28.0001,16.9999 z"
       id="path4398" />
    <path
       style="fill:#ff7fff;fill-opacity:0.4107143"
       inkscape:connector-curvature="0"
       d="m 1626.9004,1250.6049 c -5.9999,-10 -15.9999,-17 -27.9999,-17 -17,0 -30,13 -30,30 0,33 18,37.9999 57.9999,75.9999 40,-38 58,-42.9999 58,-75.9999 0,-17 -13,-30 -30,-30 -12,0 -22,7 -28,17 z"
       id="path4400" />
    <path
       id="path4402"
       d="m -177.95707,372.21175 c -6,-10 -16,-17 -28,-17 -17.0001,0 -30.0001,13 -30.0001,30 0,33.00003 18.0001,38.00003 58.0001,76.00003 40,-38 58,-43 58,-76.00003 0,-17 -13,-30 -30,-30 -12,0 -22,7 -28,17 z"
       inkscape:connector-curvature="0"
       style="fill:#ff7fff;fill-opacity:0.4107143" />
    <path
       style="fill:#ff7fff;fill-opacity:0.4107143"
       inkscape:connector-curvature="0"
       d="m -132.22249,1029.049 c -6,-10 -16,-17 -28,-17 -17.0001,0 -30.0001,13 -30.0001,30 0,33 18.0001,38 58.0001,76 39.999996,-38 57.999994,-43 57.999994,-76 0,-17 -12.999998,-30 -29.999994,-30 -12,0 -22,7 -28,17 z"
       id="path4404" />
    <path
       id="path4406"
       d="m -194.19332,696.21199 c -6,-10 -16.0001,-17 -28.0001,-17 -17,0 -30,13 -30,30 0,33.00004 18,38.00004 58.0001,75.99994 39.9999,-37.9999 57.9999,-42.9999 57.9999,-75.99994 0,-17 -13,-30 -30,-30 -12.0002,0 -22,7 -28,17 z"
       inkscape:connector-curvature="0"
       style="fill:#ff7fff;fill-opacity:0.4107143" />
    <path
       id="path4408"
       d="m 1219.8821,585.71646 c -6,-10 -16,-17 -28,-17 -17,0 -30.0001,13 -30.0001,29.9999 0,33.0001 18.0001,38.0001 58.0001,76 40,-37.9999 58,-42.9999 58,-76 0,-16.9999 -13,-29.9999 -30,-29.9999 -12,0 -22,7 -28,17 z"
       inkscape:connector-curvature="0"
       style="fill:#ff7fff;fill-opacity:0.4107143" />
    <path
       style="fill:#ff7fff;fill-opacity:0.4107143"
       inkscape:connector-curvature="0"
       d="m -122.60038,480.21201 c -6,-10 -16,-17 -28,-17 -17,0 -30,13 -30,30 0,33 18,38 58,75.9999 40.00001,-37.9999 58.000007,-42.9999 58.000007,-75.9999 0,-17 -12.999997,-30 -29.999997,-30 -12.00001,0 -22.00001,7 -28.00001,17 z"
       id="path4410" />
    <path
       style="fill:#ff7fff;fill-opacity:0.4107143"
       inkscape:connector-curvature="0"
       d="m 1436.8647,926.60425 c -6,-10 -16.0001,-17 -28.0001,-17 -17,0 -30,13 -30,30 0,33 18,38 58.0001,76.00025 39.9998,-38.00025 57.9999,-43.00025 57.9999,-76.00025 0,-17 -13,-30 -30,-30 -12,0 -21.9999,7 -27.9999,17 z"
       id="path4412" />
    <path
       style="fill:#ff7fff;fill-opacity:0.4107143"
       inkscape:connector-curvature="0"
       d="m -842.97678,803.57789 c -6,-9.99999 -16,-17.00009 -28,-17.00009 -17,0 -30,13.00009 -30,30.00009 0,32.9999 18,37.9999 58,75.9999 40.0001,-38 58.0001,-43 58.0001,-75.9999 0,-17 -13,-30.00009 -30,-30.00009 -12.0001,0 -22.0001,7.0001 -28.0001,17.00009 z"
       id="path4414" />
    <path
       style="fill:#ff7fff;fill-opacity:0.4107143"
       inkscape:connector-curvature="0"
       d="m -134.9765,804.21203 c -6,-10 -16,-17 -28,-17 -17,0 -30,13 -30,30 0,32.9999 18,37.9999 58,76 39.999999,-38.0001 57.999999,-43.0001 57.999999,-76 0,-17 -13,-30 -29.999999,-30 -12,0 -22,7 -28,17 z"
       id="path4416" />
    <path
       style="fill:#ff7fff;fill-opacity:0.4107143"
       inkscape:connector-curvature="0"
       d="m 1543.0969,1034.6046 c -6,-10 -16,-17 -28,-17 -17.0001,0 -30.0001,13 -30.0001,30 0,33 18.0001,38 58.0001,76 40,-38 58,-43 58,-76 0,-17 -13,-30 -30,-30 -12,0 -22,7 -28,17 z"
       id="path4418" />
    <path
       id="path4420"
       d="m 1744.9004,1227.1159 c -6,-10 -16,-17 -28,-17 -17,0 -30,13 -30,30.0001 0,32.9999 18,37.9999 58,76 40.0002,-38.0001 58.0002,-43.0001 58.0002,-76 0,-17.0001 -13,-30.0001 -30,-30.0001 -12.0001,0 -22.0001,7 -28.0002,17 z"
       inkscape:connector-curvature="0"
       style="fill:#ff7fff;fill-opacity:0.4107143" />
    <path
       id="path4422"
       d="m -370.9765,727.58664 c -6,-10 -16,-17 -28,-17 -17,0 -30,13 -30,30 0,33 18,38 58,75.9999 40,-37.9999 58,-42.9999 58,-75.9999 0,-17 -13,-30 -30,-30 -12,0 -22,7 -28,17 z"
       inkscape:connector-curvature="0"
       style="fill:#ff7fff;fill-opacity:0.4107143" />
    <path
       style="fill:#ff7fff;fill-opacity:0.4107143"
       inkscape:connector-curvature="0"
       d="m 479.93655,384.41796 c -6,-10 -16,-17 -28,-17 -17,0 -30,13 -30,30 0,32.9999 18,37.9999 58,75.9999 40,-38 57.9999,-43 57.9999,-75.9999 0,-17 -12.9999,-30 -29.9999,-30 -12,0 -22,7 -28,17 z"
       id="path4424" />
    <path
       id="path4426"
       d="m 2040.5563,387.0339 c -6,-10 -16,-17 -28,-17 -16.9999,0 -29.9999,13 -29.9999,29.9999 0,33 18,38 57.9999,76 39.9998,-37.9999 57.9998,-42.9999 57.9998,-75.9999 0,-17 -13,-30 -30,-30 -12,0 -22,7 -28,17 z"
       inkscape:connector-curvature="0"
       style="fill:#ff7fff;fill-opacity:0.4107143" />
    <path
       style="fill:#ff7fff;fill-opacity:0.4107143"
       inkscape:connector-curvature="0"
       d="m 628.83191,384.41796 c -6.0001,-10 -16.0001,-17 -28,-17 -17,0 -30,13 -30,30 0,33 18,38 58,75.9999 40.0001,-37.9999 58.0001,-42.9999 58.0001,-75.9999 0,-17 -13,-30 -30,-30 -12,0 -22.0001,7 -28.0001,17 z"
       id="path4428" />
    <path
       id="path4430"
       d="m 101.0235,637.69557 c -5.999997,-10 -15.999897,-17 -27.999997,-17 -17,0 -30.000004,13 -30.000004,30 0,32.99996 18.000004,37.99996 58.000001,75.99996 40,-38 58.0001,-43 58.0001,-76.00006 0,-17 -13.0001,-30 -30.0001,-30 -12,0 -22,7 -28,17 z"
       inkscape:connector-curvature="0"
       style="fill:#ff7fff;fill-opacity:0.4107143" />
    <path
       id="path4432"
       d="m 1661.0969,926.60468 c -6,-10 -16,-17 -28,-17 -17,0 -30,13 -30,30 0,33 18,38 58,76.00002 40,-38.00002 58.0001,-43.00002 58.0001,-76.00002 0,-17 -13.0001,-30 -30.0001,-30 -12,0 -22,7 -28,17 z"
       inkscape:connector-curvature="0"
       style="fill:#ff7fff;fill-opacity:0.4107143" />
    <path
       id="path4434"
       d="m 713.26198,961.7681 c -6,-10 -16,-17 -28,-17 -17,0 -30,13 -30,30 0,33 18,38 58,76 40,-38 58,-43 58,-76 0,-17 -13,-30 -30,-30 -12,0 -22,7 -28,17 z"
       inkscape:connector-curvature="0"
       style="fill:#ff7fff;fill-opacity:0.4107143" />
    <path
       id="path4436"
       d="m 1626.9004,1142.6049 c -6,-10 -16,-17 -28,-17 -17,0 -29.9999,13 -29.9999,30 0,33 17.9999,38.0001 57.9999,75.9999 40,-37.9998 58,-42.9999 58,-75.9999 0,-17 -13,-30 -30,-30 -12,0 -22,7 -28,17 z"
       inkscape:connector-curvature="0"
       style="fill:#ff7fff;fill-opacity:0.4107143" />
    <path
       style="fill:#ff7fff;fill-opacity:0.4107143"
       inkscape:connector-curvature="0"
       d="m -662.0662,348.36661 c -6,-10 -15.9999,-17 -28,-17 -17,0 -30,13 -30,30 0,33 18,38 58,76 40,-38 58.0001,-43 58.0001,-76 0,-17 -13.0001,-30 -30.0001,-30 -12,0 -22,7 -28,17 z"
       id="path4438" />
    <path
       style="fill:#ff7fff;fill-opacity:0.4107143"
       inkscape:connector-curvature="0"
       d="m -312.19342,619.58644 c -6,-10 -16,-17 -28,-17 -17,0 -30,13 -30,30 0,33 18,38 58,76.0001 40,-38.0001 58,-43.0001 58,-76.0001 0,-17 -13,-30 -30,-30 -12,0 -22,7 -28,17 z"
       id="path4440" />
    <path
       style="fill:#ff7fff;fill-opacity:0.4107143"
       inkscape:connector-curvature="0"
       d="m 573.02361,600.41796 c -6,-10 -16,-16.9999 -28,-16.9999 -17,0 -30,12.9999 -30,29.9999 0,33.0001 18,38.0001 58,75.9999 40,-37.9998 58,-42.9998 58,-75.9999 0,-17 -13,-29.9999 -30,-29.9999 -12,0 -22,6.9999 -28,16.9999 z"
       id="path4442" />
    <path
       id="path4444"
       d="m -250.22249,1072.9187 c -6,-10 -16,-17.0001 -28,-17.0001 -17,0 -30,13.0001 -30,30.0001 0,32.9999 18,37.9999 58,75.9999 40,-38 57.9999,-43 57.9999,-75.9999 0,-17 -12.9999,-30.0001 -29.9999,-30.0001 -12,0 -22,7.0001 -28,17.0001 z"
       inkscape:connector-curvature="0"
       style="fill:#ff7fff;fill-opacity:0.4107143" />
    <path
       id="path4249"
       d="m 1498.1578,544.24404 c -6,-10 -16,-17 -28,-17 -17,0 -30,13 -30,30 0,33 18,38 58,76.0001 40,-38.0001 58.0001,-43.0001 58.0001,-76.0001 0,-17 -13.0001,-30 -30.0001,-30 -12,0 -22,7 -28,17 z"
       inkscape:connector-curvature="0"
       style="fill:#ff7fff;fill-opacity:0.4107143" />
    <path
       style="fill:#ff7fff;fill-opacity:0.4107143"
       inkscape:connector-curvature="0"
       d="m 915.74662,1242.0589 c -6,-10 -16,-17 -28,-17 -17,0 -30,13 -30,30 0,33 18,38 58,76 40.00009,-38 58.00009,-43 58.00009,-76 0,-17 -13,-30 -30,-30 -12,0 -22,7 -28.00009,17 z"
       id="path4237" />
    <path
       style="fill:#ff7fff;fill-opacity:0.4107143"
       inkscape:connector-curvature="0"
       d="m -430.19342,601.04459 c -5.9999,-10 -15.9999,-17 -27.9999,-17 -17,0 -30,13 -30,30 0,33 18,37.9999 57.9999,75.9999 40,-38 58,-42.9999 58,-75.9999 0,-17 -13,-30 -30,-30 -12,0 -22,7 -28,17 z"
       id="path4202" />
    <path
       id="path4215"
       d="m -724.9427,1147.4073 c -6,-10 -16,-17 -28,-17 -17,0 -30,13 -30,30 0,33.0001 18,38.0001 58,76.0001 40,-38 58,-43 58,-76.0001 0,-17 -13,-30 -30,-30 -12,0 -22,7 -28,17 z"
       inkscape:connector-curvature="0"
       style="fill:#ff7fff;fill-opacity:0.4107143" />
    <path
       style="fill:#ff7fff;fill-opacity:0.4107143"
       inkscape:connector-curvature="0"
       d="m 612.97907,1140.4183 c -6,-10 -16,-17 -28,-17 -17.0001,0 -30.0001,13 -30.0001,30 0,33 18.0001,38 58.0001,76 40,-38 58,-43 58,-76 0,-17 -13,-30 -30,-30 -12,0 -22,7 -28,17 z"
       id="path4229" />
    <path
       id="path4211"
       d="m -606.9765,715.40709 c -6,-10 -16.0001,-17 -28.0001,-17 -17,0 -30,13 -30,30 0,33 18,38 58.0001,76 39.9999,-38 57.9999,-43 57.9999,-76 0,-17 -13,-30 -30,-30 -12.0001,0 -22,7 -28,17 z"
       inkscape:connector-curvature="0"
       style="fill:#ff7fff;fill-opacity:0.4107143" />
    <path
       id="path4219"
       d="m 1247.6602,693.71646 c -6,-10 -16,-17 -28,-17 -17,0 -30.0001,13 -30.0001,30.0001 0,33 18.0001,38 58.0001,75.9999 40,-37.9999 58,-42.9999 58,-75.9999 0,-17.0001 -13,-30.0001 -30,-30.0001 -12,0 -22,7 -28,17 z"
       inkscape:connector-curvature="0"
       style="fill:#ff7fff;fill-opacity:0.4107143" />
    <path
       style="fill:#ff7fff;fill-opacity:0.4107143"
       inkscape:connector-curvature="0"
       d="m 202.67145,527.67378 c -6,-10 -16,-17 -28,-17 -17,0 -30,13 -30,29.9999 0,33.0001 18,38.0001 58,75.9999 40,-37.9998 58,-42.9998 58,-75.9999 0,-16.9999 -13,-29.9999 -30,-29.9999 -12,0 -22,7 -28,17 z"
       id="path4243" />
    <path
       style="fill:#ff7fff;fill-opacity:0.4107143"
       inkscape:connector-curvature="0"
       d="m -488.9766,825.15328 c -6,-10 -16,-17 -28,-17 -17,0 -30,13 -30,30 0,33 18,38 58,76 40,-38 58,-43 58,-76 0,-17 -13,-30 -30,-30 -12,0 -22,7 -28,17 z"
       id="path4239" />
    <path
       style="fill:#ff7fff;fill-opacity:0.4107143"
       inkscape:connector-curvature="0"
       d="m -368.22259,1138.4165 c -6,-10 -16,-17 -28,-17 -17,0 -30,13 -30,30 0,33 18,38 58,76 40.0001,-38 58.0001,-43 58.0001,-76 0,-17 -13,-30 -30,-30 -12.0001,0 -22.0001,7 -28.0001,17 z"
       id="path4221" />
    <path
       style="fill:#ff7fff;fill-opacity:0.4107143"
       inkscape:connector-curvature="0"
       d="m 160.66519,1003.4428 c -6,-9.99996 -16,-16.99996 -28,-16.99996 -17,0 -30,13 -30,29.99996 0,33 18,38 58,76.0001 40,-38.0001 58,-43.0001 58,-76.0001 0,-16.99996 -13,-29.99996 -30,-29.99996 -12,0 -22,7 -28,16.99996 z"
       id="path4233" />
    <path
       style="fill:#ff7fff;fill-opacity:0.4107143"
       inkscape:connector-curvature="0"
       d="m 475.73679,1248.4184 c -6,-10 -16,-17 -28.0001,-17 -17,0 -30,13 -30,30 0,33 18,38 58.0001,76 40,-38 57.9999,-43 57.9999,-76 0,-17 -12.9999,-30 -29.9999,-30 -12,0 -22,7 -28,17 z"
       id="path4251" />
    <path
       id="path4257"
       d="m 1045.024,837.05622 c -6,-10 -16,-17 -28.0001,-17 -17,0 -30.00002,13 -30.00002,30 0,33 18.00002,38 58.00012,76 40.0002,-38 58.0002,-43 58.0002,-76 0,-17 -13,-30 -30,-30 -12.0001,0 -22.0001,7 -28.0002,17 z"
       inkscape:connector-curvature="0"
       style="fill:#ff7fff;fill-opacity:0.4107143" />
    <path
       id="path4245"
       d="m 455.02361,578.51973 c -6,-10 -16,-17 -28,-17 -17,0 -30,13 -30,30 0,33.0001 18,38.0001 58,76 40,-37.9999 58,-42.9999 58,-76 0,-17 -13,-30 -30,-30 -12,0 -22,7 -28,17 z"
       inkscape:connector-curvature="0"
       style="fill:#ff7fff;fill-opacity:0.4107143" />
    <path
       style="fill:#ff7fff;fill-opacity:0.4107143"
       inkscape:connector-curvature="0"
       d="m 1922.5564,387.0339 c -6,-10 -16,-17 -28,-17 -17,0 -30,13 -30,30 0,32.9999 18,37.9999 58,75.9999 40,-38 57.9999,-43 57.9999,-75.9999 0,-17 -12.9999,-30 -29.9999,-30 -12,0 -22,7 -28,17 z"
       id="path4255" />
    <path
       id="path4253"
       d="m -53.561308,362.60984 c -6,-10 -16,-17 -28,-17 -16.9999,0 -29.999902,13 -29.999902,30 0,33 18.000002,38 57.999902,75.9999 40,-37.9999 57.9999999,-42.9999 57.9999999,-75.9999 0,-17 -13,-30 -29.9999999,-30 -12,0 -22,7 -28,17 z"
       inkscape:connector-curvature="0"
       style="fill:#ff7fff;fill-opacity:0.4107143" />
    <path
       style="fill:#ff7fff;fill-opacity:0.4107143"
       inkscape:connector-curvature="0"
       d="m -960.97688,745.97028 c -6.0001,-10 -16.0001,-17 -28,-17 -16.99992,0 -29.99992,13 -29.99992,30 0,33 18,38 57.99992,75.9999 40.0001,-37.9999 58.0001,-42.9999 58.0001,-75.9999 0,-17 -13,-30 -30,-30 -12,0 -22.0001,7 -28.0001,17 z"
       id="path4247" />
    <path
       id="path4241"
       d="m -488.9426,1109.0301 c -6.0001,-10 -16,-17 -28.0001,-17 -17,0 -30,13 -30,30 0,33.0001 18,38.0001 58.0001,76.0001 40,-38 58.00009,-43 58.00009,-76.0001 0,-17 -13.00009,-30 -30.00009,-30 -12,0 -22,7 -28,17 z"
       inkscape:connector-curvature="0"
       style="fill:#ff7fff;fill-opacity:0.4107143" />
    <path
       id="path4227"
       d="m 1495.4036,818.60415 c -6,-10 -16,-17 -28,-17 -17,0 -30,13 -30,30 0,33 18,38 58,76 40,-38 58.0001,-43 58.0001,-76 0,-17 -13.0001,-30 -30.0001,-30 -12,0 -22,7 -28,17 z"
       inkscape:connector-curvature="0"
       style="fill:#ff7fff;fill-opacity:0.4107143" />
    <path
       id="path4231"
       d="m 1259.4036,801.71656 c -6,-10 -16,-17 -28,-17 -17,0 -30,13 -30,30 0,33 18,38 58,76 40,-38 58,-43 58,-76 0,-17 -13,-30 -30,-30 -12,0 -22,7 -28,17 z"
       inkscape:connector-curvature="0"
       style="fill:#ff7fff;fill-opacity:0.4107143" />
    <path
       id="path4223"
       d="m 573.02351,492.41796 c -6,-10 -16,-17 -28,-17 -17,0 -29.9999,13 -29.9999,30 0,33 17.9999,38.0001 57.9999,76 40,-37.9999 58,-43 58,-76 0,-17 -13,-30 -30,-30 -12,0 -22,7 -28,17 z"
       inkscape:connector-curvature="0"
       style="fill:#ff7fff;fill-opacity:0.4107143" />
    <path
       style="fill:#ff7fff;fill-opacity:0.4107143"
       inkscape:connector-curvature="0"
       d="m 840.97011,724.19424 c -6,-10 -15.9999,-17 -28,-17 -17,0 -30,13 -30,30 0,33 18,38 58,75.9999 40,-37.9999 58.0001,-42.9999 58.0001,-75.9999 0,-17 -13.0001,-30 -30.0001,-30 -12,0 -22,7 -28,17 z"
       id="path4213" />
    <path
       style="fill:#ff7fff;fill-opacity:0.4107143"
       inkscape:connector-curvature="0"
       d="m 1992.847,873.16396 c -6,-10.0001 -16,-17.0001 -28,-17.0001 -17,0 -30,13 -30,30.0001 0,33 18,38.0001 58,76.0001 40,-38 58,-43.0001 58,-76.0001 0,-17.0001 -13,-30.0001 -30,-30.0001 -12,0 -22,7 -28,17 z"
       id="path4217" />
    <path
       style="fill:#ff7fff;fill-opacity:0.4107143"
       inkscape:connector-curvature="0"
       d="m -231.22966,1247.3683 c -6,-10 -16,-17.0001 -28,-17.0001 -17,0 -30,13.0001 -30,30.0001 0,33.0001 18,38.0001 58,75.9999 40,-37.9998 58,-42.9998 58,-75.9999 0,-17 -13,-30.0001 -30,-30.0001 -12,0 -22,7.0001 -28,17.0001 z"
       id="path4225" />
    <path
       id="path4235"
       d="m 1425.0968,1034.6046 c -6,-10 -16,-17 -28,-17 -17,0 -30,13 -30,30 0,32.9999 18,37.9999 58,75.9999 40,-38 57.9999,-43 57.9999,-75.9999 0,-17 -12.9999,-30 -29.9999,-30 -12,0 -22,7 -28,17 z"
       inkscape:connector-curvature="0"
       style="fill:#ff7fff;fill-opacity:0.4107143" />
    <path
       style="fill:#ff7fff;fill-opacity:0.4107143"
       inkscape:connector-curvature="0"
       d="m 337.02361,654.38888 c -6,-10 -16,-17 -28,-17 -17,0 -30,13 -30,30 0,33 18,38 58,76.0001 40,-38.0001 58,-43.0001 58,-76.0001 0,-17 -13,-30 -30,-30 -12,0 -22,7 -28,17 z"
       id="path4246" />
    <path
       id="path4248"
       d="m 1653.1305,655.66955 c -6,-10 -16,-17 -28,-17 -17,0 -30,13 -30,30 0,32.9999 18,37.9999 58,75.9999 40.0001,-38 58,-43 58,-75.9999 0,-17 -12.9999,-30 -29.9999,-30 -12,0 -22,7 -28.0001,17 z"
       inkscape:connector-curvature="0"
       style="fill:#ff7fff;fill-opacity:0.4107143" />
    <path
       id="path4250"
       d="m 483.79195,1356.4185 c -5.9999,-10 -15.9999,-17 -27.9999,-17 -17,0 -30,13 -30,30 0,33 18,37.9999 57.9999,75.9999 40,-38 58,-42.9999 58,-75.9999 0,-17 -13,-30 -30,-30 -12,0 -22,7 -28,17 z"
       inkscape:connector-curvature="0"
       style="fill:#ff7fff;fill-opacity:0.4107143" />
    <path
       style="fill:#ff7fff;fill-opacity:0.4107143"
       inkscape:connector-curvature="0"
       d="m 1985.1064,608.58955 c -6,-10 -16,-17 -28,-17 -17,0 -30,13 -30,30 0,33 18,38 58,76 40,-38 58,-43 58,-76 0,-17 -13,-30 -30,-30 -12,0 -22,7 -28,17 z"
       id="path4252" />
    <path
       id="path4254"
       d="m -398.24706,468.45616 c -5.9999,-10 -15.9999,-17 -27.9999,-17 -17.0001,0 -30.0001,13 -30.0001,30 0,33 18.0001,38 58,76 40,-38 58,-43 58,-76 0,-17 -13,-30 -30,-30 -12,0 -22,7 -28,17 z"
       inkscape:connector-curvature="0"
       style="fill:#ff7fff;fill-opacity:0.4107143" />
    <path
       style="fill:#ff7fff;fill-opacity:0.4107143"
       inkscape:connector-curvature="0"
       d="m 1273.9544,477.71646 c -6,-10 -16.0001,-17 -28.0001,-17 -17,0 -30,13 -30,30 0,33 18,38 58.0001,75.9999 39.9999,-37.9999 57.9999,-42.9999 57.9999,-75.9999 0,-17 -13,-30 -30,-30 -12.0001,0 -22,7 -28,17 z"
       id="path4256" />
    <path
       style="fill:#ff7fff;fill-opacity:0.4107143"
       inkscape:connector-curvature="0"
       d="m -842.9428,1039.4073 c -6,-10 -16,-17 -28,-17 -17,0 -30.0001,13 -30.0001,30 0,33.0001 18.0001,38.0001 58.0001,76 40,-37.9999 58,-42.9999 58,-76 0,-17 -13,-30 -30,-30 -12,0 -22,7 -28,17 z"
       id="path4258" />
    <path
       id="path4260"
       d="m 1163.024,953.6499 c -6,-10 -16,-17 -28,-17 -17,0 -30,13 -30,30 0,33.0001 18,38.0001 58,75.9999 39.9999,-37.9998 57.9999,-42.9998 57.9999,-75.9999 0,-17 -13,-30 -30,-30 -11.9999,0 -21.9999,7 -27.9999,17 z"
       inkscape:connector-curvature="0"
       style="fill:#ff7fff;fill-opacity:0.4107143" />
    <path
       id="path4262"
       d="m 595.26207,1032.4183 c -6,-10 -16.00009,-17 -28.00009,-17 -17,0 -30,13 -30,30 0,33 18,38 58.00009,75.9999 39.99981,-37.9999 57.99991,-42.9999 57.99991,-75.9999 0,-17 -13,-30 -30,-30 -12,0 -21.99991,7 -27.99991,17 z"
       inkscape:connector-curvature="0"
       style="fill:#ff7fff;fill-opacity:0.4107143" />
    <path
       id="path4264"
       d="m 116.90484,895.44278 c -6,-10 -16,-17 -28.000001,-17 -17,0 -30,13 -30,30 0,33 18,38 58.000001,75.99996 40.0001,-37.99996 58.0002,-42.99996 58.0002,-75.99996 0,-17 -13.0001,-30 -30.0001,-30 -12.0001,0 -22.0001,7 -28.0001,17 z"
       inkscape:connector-curvature="0"
       style="fill:#ff7fff;fill-opacity:0.4107143" />
    <path
       id="path4266"
       d="m -779.16102,931.40716 c -6,-10 -16,-17 -28,-17 -17,0 -30,13 -30,30 0,32.99991 18,37.99991 58,76.00004 40,-38.00013 58,-43.00013 58,-76.00004 0,-17 -13,-30 -30,-30 -12,0 -22,7 -28,17 z"
       inkscape:connector-curvature="0"
       style="fill:#ff7fff;fill-opacity:0.4107143" />
    <path
       id="path4268"
       d="m 593.73669,1248.4184 c -6,-10 -16,-17 -28,-17 -17,0 -30,13 -30,30 0,33 18,38 58,76 40,-38 58,-43 58,-76 0,-17 -13,-30 -30,-30 -12,0 -22,7 -28,17 z"
       inkscape:connector-curvature="0"
       style="fill:#ff7fff;fill-opacity:0.4107143" />
    <path
       style="fill:#ff7fff;fill-opacity:0.4107143"
       inkscape:connector-curvature="0"
       d="m 455.02361,708.41796 c -6,-10 -16,-17 -28,-17 -17,0 -30,13 -30,30 0,33 18,38 58,76.0001 40.0002,-38.0001 58.0002,-43.0001 58.0002,-76.0001 0,-17 -13,-30 -30,-30 -12.0001,0 -22.0001,7 -28.0002,17 z"
       id="path4270" />
    <path
       style="fill:#ff7fff;fill-opacity:0.4107143"
       inkscape:connector-curvature="0"
       d="m 1318.8645,917.01075 c -6,-10 -16,-17 -28,-17 -17,0 -30,13 -30,30 0,33 18,38 58,76.00005 40,-38.00005 58,-43.00005 58,-76.00005 0,-17 -13,-30 -30,-30 -12,0 -22,7 -28,17 z"
       id="path4272" />
    <path
       id="path4274"
       d="m 1862.9005,1248.9173 c -6,-10 -16,-17 -28,-17 -17,0 -30,13 -30,30 0,32.9999 18,37.9999 58,75.9999 40,-38 57.9999,-43 57.9999,-75.9999 0,-17 -12.9999,-30 -29.9999,-30 -12,0 -22,7 -28,17 z"
       inkscape:connector-curvature="0"
       style="fill:#ff7fff;fill-opacity:0.4107143" />
    <path
       style="fill:#ff7fff;fill-opacity:0.4107143"
       inkscape:connector-curvature="0"
       d="m 755.34768,1122.1127 c -6,-10 -16,-17 -28,-17 -17,0 -30,13 -30,30 0,33 18,38 58,75.9999 39.9999,-37.9999 57.9999,-42.9999 57.9999,-75.9999 0,-17 -13,-30 -29.9999,-30 -12,0 -22,7 -28,17 z"
       id="path4276" />
    <path
       id="path4278"
       d="m 545.11992,924.41826 c -6.0001,-10 -16.0001,-17 -28,-17 -17,0 -30,13 -30,30 0,33 18,38 58,75.99994 40.0001,-37.99994 58.0001,-42.99994 58.0001,-75.99994 0,-17 -13,-30 -30,-30 -12,0 -22.0001,7 -28.0001,17 z"
       inkscape:connector-curvature="0"
       style="fill:#ff7fff;fill-opacity:0.4107143" />
    <path
       style="fill:#ff7fff;fill-opacity:0.4107143"
       inkscape:connector-curvature="0"
       d="m -14.222494,1079.1313 c -6,-10 -15.9999,-17 -28,-17 -17,0 -30.000002,13 -30.000002,30 0,33 18.000002,38 58.000002,76 40.000001,-38 58.000101,-43 58.000101,-76 0,-17 -13.0001,-30 -30.000101,-30 -11.9999996,0 -21.9999996,7 -28,17 z"
       id="path4280" />
    <path
       style="fill:#ff7fff;fill-opacity:0.4107143"
       inkscape:connector-curvature="0"
       d="m 1129.66,693.71646 c -6,-10 -16,-17 -28,-17 -17,0 -30,13 -30,30 0,33 18,38 58,76 40,-38 58.0001,-43 58.0001,-76 0,-17 -13.0001,-30 -30.0001,-30 -12,0 -22,7 -28,17 z"
       id="path4282" />
    <path
       style="fill:#ff7fff;fill-opacity:0.4107143"
       inkscape:connector-curvature="0"
       d="m 1804.5564,453.49342 c -6,-10 -16,-17 -28,-17 -17,0 -30,13 -30,30 0,33 18,38 58,76 40,-38 58,-43 58,-76 0,-17 -13,-30 -30,-30 -12,0 -22,7 -28,17 z"
       id="path4284" />
    <path
       style="fill:#ff7fff;fill-opacity:0.4107143"
       inkscape:connector-curvature="0"
       d="m 289.32519,1267.269 c -6,-10 -16,-17 -28,-17 -17,0 -29.9999,13 -29.9999,30 0,33 17.9999,38.0001 57.9999,76 40,-37.9999 58,-43 58,-76 0,-17 -13,-30 -30,-30 -12,0 -22,7 -28,17 z"
       id="path4286" />
    <path
       id="path4288"
       d="m -724.97668,715.40686 c -6,-10 -15.9999,-17 -28,-17 -17,0 -30,13 -30,30 0,33 18,38 58,76 39.99998,-38 58.00008,-43 58.00008,-76 0,-17 -13.0001,-30 -30.0001,-30 -12,0 -21.99998,7 -27.99998,17 z"
       inkscape:connector-curvature="0"
       style="fill:#ff7fff;fill-opacity:0.4107143" />
    <path
       id="path4290"
       d="m -606.9427,1147.4072 c -6,-10 -16,-17 -28,-17 -17,0 -30,13 -30,30 0,33 18,38.0001 58,76.0001 40,-38 58,-43.0001 58,-76.0001 0,-17 -13,-30 -30,-30 -12,0 -22,7 -28,17 z"
       inkscape:connector-curvature="0"
       style="fill:#ff7fff;fill-opacity:0.4107143" />
    <path
       id="path4292"
       d="m -606.9427,1039.4073 c -6,-10 -16,-17 -28,-17 -17,0 -30,13 -30,30 0,32.9999 18,37.9999 58,75.9998 40,-37.9999 58,-42.9999 58,-75.9998 0,-17 -13,-30 -30,-30 -12,0 -22,7 -28,17 z"
       inkscape:connector-curvature="0"
       style="fill:#ff7fff;fill-opacity:0.4107143" />
    <path
       style="fill:#ff7fff;fill-opacity:0.4107143"
       inkscape:connector-curvature="0"
       d="m -548.19322,607.40699 c -6,-10 -16,-17 -28,-17 -17,0 -30,13 -30,30 0,33 18,38 58,76 40,-38 57.9999,-43 57.9999,-76 0,-17 -12.9999,-30 -29.9999,-30 -12,0 -22,7 -28,17 z"
       id="path4294" />
    <path
       id="path4296"
       d="m -724.9766,823.40696 c -6,-10 -16,-17 -28,-17 -17,0 -29.9999,13 -29.9999,30 0,33 17.9999,38 57.9999,76.0001 40,-38.0001 58,-43.0001 58,-76.0001 0,-17 -13,-30 -30,-30 -12,0 -22,7 -28,17 z"
       inkscape:connector-curvature="0"
       style="fill:#ff7fff;fill-opacity:0.4107143" />
    <path
       style="fill:#ff7fff;fill-opacity:0.4107143"
       inkscape:connector-curvature="0"
       d="m 455.02371,816.41816 c -6,-10 -16.00001,-17 -28.00001,-17 -16.99999,0 -29.99999,13 -29.99999,30 0,32.9999 18,37.9999 58,76 40.0001,-38.0001 58.0001,-43.0001 58.0001,-76 0,-17 -13,-30 -30,-30 -12,0 -22,7 -28.0001,17 z"
       id="path4298" />
    <path
       style="fill:#ff7fff;fill-opacity:0.4107143"
       inkscape:connector-curvature="0"
       d="m 691.02361,743.58391 c -5.9999,-10 -15.9999,-17 -27.9999,-17 -17,0 -30,13 -30,30 0,33 18,37.9999 57.9999,75.9999 40,-38 58,-42.9999 58,-75.9999 0,-17 -13,-30 -30,-30 -12,0 -22,7 -28,17 z"
       id="path4300" />
    <path
       id="path4302"
       d="m 2100.6923,1246.2323 c -6,-10 -16,-17 -28,-17 -17,0 -30,13 -30,30.0001 0,33 18,38 58,76 40,-38 58,-43 58,-76 0,-17.0001 -13,-30.0001 -30,-30.0001 -12,0 -22,7 -28,17 z"
       inkscape:connector-curvature="0"
       style="fill:#ff7fff;fill-opacity:0.4107143" />
    <path
       style="fill:#ff7fff;fill-opacity:0.4107143"
       inkscape:connector-curvature="0"
       d="m -704.97382,607.40676 c -6,-10 -16,-17 -27.99999,-17 -17.0001,0 -30.0001,13 -30.0001,30 0,33 18.0001,38 58.00009,76 40,-38 58,-43 58,-76 0,-17 -13,-30 -30,-30 -12,0 -22,7 -28,17 z"
       id="path4304" />
    <path
       id="path4306"
       d="m 809.02361,616.19404 c -6,-10 -16,-17 -28,-17 -17,0 -30,13 -30,30 0,33.0001 18,38.0001 58,76.0001 40,-38 58,-43 58,-76 0,-17.0001 -13,-30.0001 -30,-30.0001 -12.0001,0 -22,7 -28,17 z"
       inkscape:connector-curvature="0"
       style="fill:#ff7fff;fill-opacity:0.4107143" />
    <path
       id="path4308"
       d="m -661.16092,931.40729 c -6,-10 -16,-17 -28,-17 -17,0 -30.0001,13 -30.0001,30 0,33 18.0001,38 58.0001,75.99991 40,-37.99991 58,-42.99991 58,-75.99991 0,-17 -13,-30 -30,-30 -12,0 -22,7 -28,17 z"
       inkscape:connector-curvature="0"
       style="fill:#ff7fff;fill-opacity:0.4107143" />
    <path
       style="fill:#ff7fff;fill-opacity:0.4107143"
       inkscape:connector-curvature="0"
       d="m 1613.4036,791.37467 c -6,-10 -16,-17 -28,-17 -17,0 -30,13 -30,30 0,33.0001 18,38.0001 58,76 40,-37.9999 58,-42.9999 58,-76 0,-17 -13,-30 -30,-30 -12,0 -22,7 -28,17 z"
       id="path4310" />
    <path
       style="fill:#ff7fff;fill-opacity:0.4107143"
       inkscape:connector-curvature="0"
       d="m -34.50236,921.04893 c -6,-10 -16,-17 -28,-17 -17,0 -30,13 -30,30 0,33 18,38 58,75.99997 39.9998997,-37.99997 58,-42.99997 58,-75.99997 0,-17 -13,-30 -30.0000003,-30 -11.9999997,0 -21.9999997,7 -27.9999997,17 z"
       id="path4312" />
    <path
       style="fill:#ff7fff;fill-opacity:0.4107143"
       inkscape:connector-curvature="0"
       d="m 1508.9004,1265.9185 c -6,-10 -16,-17 -28,-17 -17,0 -30,13 -30,30 0,32.9999 18,37.9999 58,75.9999 40.0001,-38 58.0001,-43 58.0001,-75.9999 0,-17 -13,-30 -30,-30 -12.0001,0 -22.0001,7 -28.0001,17 z"
       id="path4314" />
    <path
       style="fill:#ff7fff;fill-opacity:0.4107143"
       inkscape:connector-curvature="0"
       d="m -606.9766,823.40719 c -6,-10 -16,-17 -28,-17 -17,0 -30,13 -30,30 0,33 18,38 58,76 40,-38 58,-43 58,-76 0,-17 -13,-30 -30,-30 -12,0 -22,7 -28,17 z"
       id="path4316" />
    <path
       style="fill:#ff7fff;fill-opacity:0.4107143"
       inkscape:connector-curvature="0"
       d="m 746.83201,468.99794 c -6,-10 -16,-17 -28,-17 -17,0 -30,13 -30,30 0,33 18,38 58,76 40,-38 58,-43 58,-76 0,-17 -13,-30 -30,-30 -12,0 -22,7 -28,17 z"
       id="path4318" />
    <path
       id="path4320"
       d="m 809.02361,832.19424 c -6,-10 -16,-17 -28,-17 -17,0 -30,13 -30,30 0,33 18,38 58,76.0001 40.0002,-38.0001 58.0002,-43.0001 58.0002,-76.0001 0,-17 -13,-30 -30,-30 -12.0001,0 -22.0001,7 -28.0002,17 z"
       inkscape:connector-curvature="0"
       style="fill:#ff7fff;fill-opacity:0.4107143" />
    <path
       id="path4322"
       d="m 1045.024,945.05632 c -6,-10 -16.0001,-17 -28.0001,-17 -17,0 -30.00002,13 -30.00002,30 0,33.0001 18.00002,38.0001 58.00012,76.00008 40,-37.99998 58,-42.99998 58,-76.00008 0,-17 -13,-30 -30,-30 -12,0 -22,7 -28,17 z"
       inkscape:connector-curvature="0"
       style="fill:#ff7fff;fill-opacity:0.4107143" />
    <path
       style="fill:#ff7fff;fill-opacity:0.4107143"
       inkscape:connector-curvature="0"
       d="m 1307.0968,1050.4368 c -6,-10 -16,-17 -28,-17 -17,0 -30,13 -30,30 0,33 18,38 58,76 40,-38 57.9999,-43 57.9999,-76 0,-17 -12.9999,-30 -29.9999,-30 -12,0 -22,7 -28,17 z"
       id="path4324" />
    <path
       id="path4326"
       d="m -240.60026,480.21188 c -6,-10 -16.00001,-17 -28.00001,-17 -16.9999,0 -29.9999,13 -29.9999,30 0,33 18,38 57.9999,76.00003 39.99989,-38.00003 57.99989,-43.00003 57.99989,-76.00003 0,-17 -13,-30 -29.9999,-30 -12,0 -21.99999,7 -27.99999,17 z"
       inkscape:connector-curvature="0"
       style="fill:#ff7fff;fill-opacity:0.4107143" />
    <path
       style="fill:#ff7fff;fill-opacity:0.4107143"
       inkscape:connector-curvature="0"
       d="m 84.671345,529.69547 c -6.0001,-10 -16.0001,-17 -28,-17 -17,0 -30,13 -30,30 0,33 18,38 58,75.9999 40.000105,-37.9999 58.000105,-42.9999 58.000105,-75.9999 0,-17 -13,-30 -30,-30 -12,0 -22.000105,7 -28.000105,17 z"
       id="path4328" />
    <path
       id="path4330"
       d="m -488.9766,717.15328 c -6,-10 -15.9999,-17 -28,-17 -17,0 -30,13 -30,30 0,33 18,38 58,75.9999 40,-37.9999 58.0001,-42.9999 58.0001,-75.9999 0,-17 -13.0001,-30 -30.0001,-30 -12,0 -22,7 -28,17 z"
       inkscape:connector-curvature="0"
       style="fill:#ff7fff;fill-opacity:0.4107143" />
    <path
       id="path4332"
       d="m 1626.9005,1358.6049 c -6,-10 -16,-17 -28,-17 -17,0 -30,13 -30,30 0,33 18,38 58,76 40,-38 58.0001,-43 58.0001,-76 0,-17 -13.0001,-30 -30.0001,-30 -12,0 -22,7 -28,17 z"
       inkscape:connector-curvature="0"
       style="fill:#ff7fff;fill-opacity:0.4107143" />
    <path
       id="path4334"
       d="m 1867.1065,649.70811 c -6,-10 -16,-17 -27.9999,-17 -17,0 -30,13 -30,30 0,33 18,38 57.9999,76 40,-38 58,-43 58,-76 0,-17 -13,-30 -30,-30 -12,0 -22,7 -28,17 z"
       inkscape:connector-curvature="0"
       style="fill:#ff7fff;fill-opacity:0.4107143" />
    <path
       id="path4336"
       d="m 1377.4035,738.11502 c -6,-10 -16,-17 -28,-17 -17,0 -29.9999,13 -29.9999,30 0,33 17.9999,38.0001 57.9999,75.9999 40,-37.9998 58,-42.9999 58,-75.9999 0,-17 -13,-30 -30,-30 -12,0 -22,7 -28,17 z"
       inkscape:connector-curvature="0"
       style="fill:#ff7fff;fill-opacity:0.4107143" />
    <path
       style="fill:#ff7fff;fill-opacity:0.4107143"
       inkscape:connector-curvature="0"
       d="m 881.94292,999.83792 c -6,-10.0001 -15.9999,-17.0001 -28,-17.0001 -17,0 -30,13.0001 -30,30.00008 0,33 18,38 58,75.9999 40,-37.9999 58.0001,-42.9999 58.0001,-75.9999 0,-16.99998 -13.0001,-30.00008 -30.0001,-30.00008 -12,0 -22,7 -28,17.0001 z"
       id="path4338" />
    <path
       style="fill:#ff7fff;fill-opacity:0.4107143"
       inkscape:connector-curvature="0"
       d="m 1966.0493,761.93707 c -6,-10 -16,-17 -28,-17 -17,0 -30,13 -30,30 0,33 18,38 58,76.0001 40,-38.0001 58,-43.0001 58,-76.0001 0,-17 -13,-30 -30,-30 -12,0 -22,7 -28,17 z"
       id="path4340" />
    <path
       style="fill:#ff7fff;fill-opacity:0.4107143"
       inkscape:connector-curvature="0"
       d="m 361.93655,416.42178 c -6,-10 -16,-17 -28,-17 -17,0 -30,13 -30,30 0,33 18,38 58,75.9999 40,-37.9999 58,-42.9999 58,-75.9999 0,-17 -13,-30 -30,-30 -12,0 -22,7 -28,17 z"
       id="path4342" />
    <path
       id="path4344"
       d="m 1933.1305,279.03382 c -6,-10 -16,-17 -28,-17 -17,0 -30,13 -30,30.0001 0,32.99988 18,37.99988 58,75.99988 40,-38 57.9999,-43 57.9999,-75.99988 0,-17.0001 -12.9999,-30.0001 -29.9999,-30.0001 -12,0 -22,7 -28,17 z"
       inkscape:connector-curvature="0"
       style="fill:#ff7fff;fill-opacity:0.4107143" />
    <path
       style="fill:#ff7fff;fill-opacity:0.4107143"
       inkscape:connector-curvature="0"
       d="m 1955.064,1014.8969 c -6,-10 -16,-16.99998 -28,-16.99998 -17,0 -30,12.99998 -30,29.99998 0,32.9999 18,37.9999 58,76 40,-38.0001 58,-43.0001 58,-76 0,-17 -13,-29.99998 -30,-29.99998 -12,0 -22,6.99998 -28,16.99998 z"
       id="path4346" />
    <path
       id="path4348"
       d="m 2040.9275,495.0339 c -6,-10 -16,-17 -28,-17 -17,0 -30,13 -30,30 0,33 18,38 58,76.0001 40.0001,-38.0001 58.0001,-43.0001 58.0001,-76.0001 0,-17 -13,-30 -30,-30 -12,0 -22,7 -28.0001,17 z"
       inkscape:connector-curvature="0"
       style="fill:#ff7fff;fill-opacity:0.4107143" />
    <path
       id="path4350"
       d="m 1337.882,585.71646 c -5.9999,-10 -15.9999,-17 -27.9999,-17 -17,0 -30,13 -30,30 0,33 18,37.9999 57.9999,75.9999 40,-38 58,-42.9999 58,-75.9999 0,-17 -13,-30 -30,-30 -12,0 -22,7 -28,17 z"
       inkscape:connector-curvature="0"
       style="fill:#ff7fff;fill-opacity:0.4107143" />
    <path
       style="fill:#ff7fff;fill-opacity:0.4107143"
       inkscape:connector-curvature="0"
       d="m 691.02361,612.1142 c -6,-10 -16,-17 -28,-17 -17,0 -30,13 -30,30 0,33.0001 18,38.0001 58,76.0001 40,-38 58,-43 58,-76.0001 0,-17 -13,-30 -30,-30 -12,0 -22,7 -28,17 z"
       id="path4352" />
    <path
       id="path4354"
       d="m 982.83211,513.05602 c -6,-10 -16,-17 -28,-17 -17.0001,0 -30.0001,13 -30.0001,30 0,33 18.0001,38 58.0001,76 39.99999,-38 57.99999,-43 57.99999,-76 0,-17 -13,-30 -30,-30 -11.99999,0 -21.99999,7 -27.99999,17 z"
       inkscape:connector-curvature="0"
       style="fill:#ff7fff;fill-opacity:0.4107143" />
    <path
       style="fill:#ff7fff;fill-opacity:0.4107143"
       inkscape:connector-curvature="0"
       d="m 1011.66,729.05612 c -6,-10 -16.00003,-17 -28.00001,-17 -17,0 -30,13 -30,30 0,33 18,38 58.00001,76 39.9999,-38 57.9999,-43 57.9999,-76 0,-17 -13,-30 -30,-30 -12,0 -22,7 -28,17 z"
       id="path4356" />
    <path
       style="fill:#ff7fff;fill-opacity:0.4107143"
       inkscape:connector-curvature="0"
       d="m -842.97668,695.57769 c -6,-10 -16,-17 -28,-17 -17,0 -30.0001,13 -30.0001,30 0,33.0001 18.0001,38.0001 58.0001,76 40,-37.9999 58,-42.9999 58,-76 0,-17 -13,-30 -30,-30 -12,0 -22,7 -28,17 z"
       id="path4358" />
    <path
       id="path4360"
       d="m -169.41013,588.21201 c -6,-10 -16,-17 -28,-17 -17,0 -30,13 -30,30 0,33.00008 18,38.00008 58,75.99988 40,-37.9998 58,-42.9998 58,-75.99988 0,-17 -13,-30 -30,-30 -12,0 -22,7 -28,17 z"
       inkscape:connector-curvature="0"
       style="fill:#ff7fff;fill-opacity:0.4107143" />
    <path
       id="path4362"
       d="m 494.97907,1140.4183 c -6,-10 -16.0001,-17 -28.0001,-17 -17,0 -30,13 -30,30 0,33 18,38 58.0001,76 39.99981,-38 57.9999,-43 57.9999,-76 0,-17 -13,-30 -30,-30 -12,0 -21.9999,7 -27.9999,17 z"
       inkscape:connector-curvature="0"
       style="fill:#ff7fff;fill-opacity:0.4107143" />
    <path
       id="path4364"
       d="m -731.03167,1255.4075 c -6,-10 -16,-17 -28,-17 -17,0 -30,13 -30,30 0,33 18,38 58,76 40.0001,-38 58.0001,-43 58.0001,-76 0,-17 -13,-30 -30,-30 -12.0001,0 -22.0001,7 -28.0001,17 z"
       inkscape:connector-curvature="0"
       style="fill:#ff7fff;fill-opacity:0.4107143" />
    <path
       id="path4366"
       d="m -252.9765,804.21203 c -6,-10 -16,-17 -28,-17 -17,0 -30,13 -30,30 0,33 18,38 58,76 40,-38 58,-43 58,-76 0,-17 -13,-30 -30,-30 -12,0 -22,7 -28,17 z"
       inkscape:connector-curvature="0"
       style="fill:#ff7fff;fill-opacity:0.4107143" />
    <path
       id="path4368"
       d="m 219.0236,635.67369 c -6,-10 -16,-17 -28,-17 -17,0 -30,13 -30,29.99999 0,33 18,38 58.00001,76 40,-38 58,-43 58,-76 0,-16.99999 -13,-29.99999 -30,-29.99999 -12,0 -22,7 -28,17 z"
       inkscape:connector-curvature="0"
       style="fill:#ff7fff;fill-opacity:0.4107143" />
    <path
       style="fill:#ff7fff;fill-opacity:0.4107143"
       inkscape:connector-curvature="0"
       d="m 1508.9004,1142.6047 c -6,-10 -16,-17 -28,-17 -17,0 -30,13 -30,30 0,33 18,38 58,76.0001 40.0001,-38.0001 58.0001,-43.0001 58.0001,-76.0001 0,-17 -13,-30 -30,-30 -12,0 -22,7 -28.0001,17 z"
       id="path4370" />
    <path
       style="fill:#ff7fff;fill-opacity:0.4107143"
       inkscape:connector-curvature="0"
       d="m -724.9427,1039.4074 c -6,-10.0001 -16,-17.0001 -28,-17.0001 -17.0001,0 -30.0001,13 -30.0001,30.0001 0,33 18,38 58.0001,75.9998 40,-37.9998 58,-42.9998 58,-75.9998 0,-17.0001 -13,-30.0001 -30,-30.0001 -12,0 -22,7 -28,17.0001 z"
       id="path4372" />
    <path
       id="path4374"
       d="m 1686.5565,498.71262 c -6,-10 -16,-17 -28,-17 -17,0 -30,13 -30,30 0,33 18,38 58,76 40,-38 57.9999,-43 57.9999,-76 0,-17 -12.9999,-30 -29.9999,-30 -12,0 -22,7 -28,17 z"
       inkscape:connector-curvature="0"
       style="fill:#ff7fff;fill-opacity:0.4107143" />
    <path
       style="fill:#ff7fff;fill-opacity:0.4107143"
       inkscape:connector-curvature="0"
       d="m 1848.0494,780.23231 c -6,-10 -16,-17 -28,-17 -16.9999,0 -29.9999,13 -29.9999,30 0,33 18,38 57.9999,75.9999 39.9999,-37.9999 57.9999,-42.9999 57.9999,-75.9999 0,-17 -13,-30 -29.9999,-30 -12,0 -22,7 -28,17 z"
       id="path4376" />
    <path
       id="path4378"
       d="m 797.74642,1255.75 c -6.0001,-10 -16.0001,-17 -28,-17 -17,0 -30,13 -30,30 0,33 18,38 58,76 40.0002,-38 58.0002,-43 58.0002,-76 0,-17 -13,-30 -30.0001,-30 -12,0 -22.0001,7 -28.0001,17 z"
       inkscape:connector-curvature="0"
       style="fill:#ff7fff;fill-opacity:0.4107143" />
    <path
       style="fill:#ff7fff;fill-opacity:0.4107143"
       inkscape:connector-curvature="0"
       d="m -370.9766,835.58664 c -6,-10 -15.9999,-17 -28,-17 -17,0 -30,13 -30,30 0,33 18,38 58,76 40,-38 58.0001,-43 58.0001,-76 0,-17 -13.0001,-30 -30.0001,-30 -12,0 -22,7 -28,17 z"
       id="path4380" />
    <path
       style="fill:#ff7fff;fill-opacity:0.4107143"
       inkscape:connector-curvature="0"
       d="m 1664.9283,1034.6048 c -6,-10 -16,-17 -28,-17 -17,0 -30,13 -30,30 0,33 18,38 58,76 40,-38 58.0001,-43 58.0001,-76 0,-17 -13.0001,-30 -30.0001,-30 -12,0 -22,7 -28,17 z"
       id="path4382" />
    <path
       style="fill:#ff7fff;fill-opacity:0.4107143"
       inkscape:connector-curvature="0"
       d="m -295.25135,264.21165 c -6,-10 -16,-17 -28,-17 -17,0 -30,13 -30,30 0,33 18,38 58,76 39.9999,-38 57.9999,-43 57.9999,-76 0,-17 -13,-30 -30,-30 -11.9999,0 -21.9999,7 -27.9999,17 z"
       id="path4384" />
    <path
       style="fill:#ff7fff;fill-opacity:0.4107143"
       inkscape:connector-curvature="0"
       d="m -132.22269,1137.0492 c -6,-10.0001 -16,-17.0001 -28,-17.0001 -17,0 -29.9999,13.0001 -29.9999,30.0001 0,33 17.9999,38.0001 57.9999,75.9999 39.999996,-37.9998 57.999996,-42.9999 57.999996,-75.9999 0,-17 -13,-30.0001 -29.999996,-30.0001 -12,0 -22,7 -28,17.0001 z"
       id="path4386" />
    <path
       id="path4388"
       d="m 1011.6599,621.05612 c -6,-10 -15.99993,-17 -28.00003,-17 -17,0 -30,13 -30,30 0,33 18,38 58.00003,75.9999 40,-37.9999 58.0001,-42.9999 58.0001,-75.9999 0,-17 -13.0001,-30 -30.0001,-30 -12,0 -22,7 -28,17 z"
       inkscape:connector-curvature="0"
       style="fill:#ff7fff;fill-opacity:0.4107143" />
    <path
       id="path4390"
       d="m 864.83201,489.33759 c -6,-10 -16,-17 -28,-17 -17,0 -30,13 -30,30 0,33 18,38 58,76 40,-38 58,-43 58,-76 0,-17 -13,-30 -30,-30 -12,0 -22,7 -28,17 z"
       inkscape:connector-curvature="0"
       style="fill:#ff7fff;fill-opacity:0.4107143" />
    <path
       id="path4392"
       d="m 1390.9003,1285.7905 c -6,-10 -16,-17 -28,-17 -17,0 -30,13 -30,30 0,33 18,38 58,75.9999 40,-37.9999 58,-42.9999 58,-75.9999 0,-17 -13,-30 -30,-30 -12,0 -22,7 -28,17 z"
       inkscape:connector-curvature="0"
       style="fill:#ff7fff;fill-opacity:0.4107143" />
    <path
       style="fill:#ff7fff;fill-opacity:0.4107143"
       inkscape:connector-curvature="0"
       d="m 573.02381,720.1144 c -6,-10 -16,-17 -28,-17 -17,0 -30,13 -30,30 0,32.99987 18,37.99987 58,75.99987 40,-38 57.9999,-43 57.9999,-75.99987 0,-17 -12.9999,-30 -29.9999,-30 -12,0 -22,7 -28,17 z"
       id="path4394" />
    <g
       id="g4399"
       transform="translate(0,4.847171e-5)">
      <path
         d="m 914.6896,987.1584 c 0,0 -6.58262,48.7502 -7.96844,62.9548 l 65.0169,0 0.92572,-44.0135 -43.88598,-22.63589 -14.0882,3.69459"
         id="path5"
         inkscape:connector-curvature="0"
         style="fill:#f9d8bb" />
      <path
         d="m 964.29623,1019.3814 -0.0637,-5.5461 -49.54289,-26.6769 -2.77163,19.7479 52.66097,36.0311 -0.28271,-23.556"
         id="path7"
         inkscape:connector-curvature="0"
         style="fill:#d9a685" />
      <path
         d="m 1244.5136,987.1584 c 0,0 6.5826,48.7502 7.9684,62.9548 l -65.0169,0 -0.9257,-44.0135 43.886,-22.63589 14.0882,3.69459"
         id="path53"
         inkscape:connector-curvature="0"
         style="fill:#f9d8bb" />
      <path
         d="m 1194.0256,1050.1132 c 0.1773,-7.9102 0.4074,-17.9823 0.6624,-29.0384 l 1.6685,-8.6253 60.6294,-31.87373 c 0,0 -11.1392,-55.09169 -18.7113,-71.95151 -9.6979,-21.591 -23.2096,-32.67752 -38.6587,-39.26291 -32.6858,-13.93298 -94.737,-22.30608 -94.737,-22.30608 l -50.5546,0 c 0,0 -62.05123,8.3731 -94.73707,22.30608 -15.44906,6.58539 -28.96076,17.67191 -38.65869,39.26291 -7.57487,16.85982 -18.71127,71.95151 -18.71127,71.95151 l 60.6294,31.87373 1.7101,10.3936 c 0.23559,10.3604 0.449,19.7812 0.62084,27.2701"
         id="path9"
         inkscape:connector-curvature="0"
         style="opacity:1;fill:#aa907f;fill-opacity:1" />
      <path
         d="m 973.52299,763.3659 c -21.46073,-10.9119 -29.31553,-33.12652 -27.35876,-59.48749 1.55766,-20.96184 14.2046,-24.05498 19.47902,-23.36761 0,0 7.3365,-0.0859 10.6098,5.7345 3.27329,5.82319 4.00223,67.6638 -2.73006,77.1206"
         id="path43"
         inkscape:connector-curvature="0"
         style="fill:#f9d8bb" />
      <path
         d="m 1185.6081,763.3659 c 21.4607,-10.9119 29.3155,-33.12652 27.3588,-59.48749 -1.5577,-20.96184 -14.2046,-24.05498 -19.4763,-23.36761 0,0 -7.7023,0.64301 -9.1574,2.82429 -1.4524,2.18127 -7.6386,74.57347 1.2749,80.03081"
         id="path45"
         inkscape:connector-curvature="0"
         style="fill:#f9d8bb" />
      <g
         transform="matrix(1.385815,0,0,1.385815,899.99996,514.63428)"
         id="g57">
        <path
           d="m 165.802,243.628 -18.078,-3.912 c -0.146,-1.618 -0.188,-2.892 -0.188,-2.892 l -35.88,-0.202 c 0,0 -0.026,1.67 -0.202,3.616 l -18.048,2.236 c -4.056,0.868 -3.918,6.542 1.998,11.29 5.942,4.768 14.848,8.854 34.082,8.854 19.234,0 28.142,-4.086 34.082,-8.854 5.916,-4.748 6.292,-9.268 2.234,-10.136"
           id="path59"
           inkscape:connector-curvature="0"
           style="fill:#f9d8bb" />
        <path
           d="m 51.002,131.766 c -7.44,-21.66 -4.376,-41.006 -4.376,-41.006 0,0 -4.756,5.036 -4.464,-0.526 1.05,-19.948 13.04,-40.162 13.04,-40.162 0,0 -11.902,3.5 -6.302,-3.85 16.264,-21.34 41.302,-24.852 41.302,-24.852 0,0 -12.252,-2.098 -8.75,-5.948 3.5,-3.85 17.532,-9.86 33.598,-11.9 22.05,-2.8 40.95,3.5 47.25,11.9 0,0 37.158,1.028 49.702,37.102 1.11,3.186 0.072,4.124 -1.58,4.092 l -2.954,-0.452 c 2.546,4.416 10.866,20.64 9.082,41.158 -0.322,3.704 -1.372,3.626 -2.502,2.234 l -1,-1.052 c 0,0 2.8,11.996 -4.64,33.654 L 51.002,131.766"
           id="path61"
           inkscape:connector-curvature="0"
           style="fill:#7d563a" />
        <path
           d="m 82.456,23.276 c -8.7,2.736 -22.98,9.07 -33.556,22.946 -3.76,4.936 -2.17,4.504 0.95,4 15.776,-20.118 41.538,-23.018 41.538,-23.018 4.688,-1.488 0.64,-4.772 -2.874,-4.696 -3.514,0.076 -6.058,0.768 -6.058,0.768"
           id="path63"
           inkscape:connector-curvature="0"
           style="fill:#bd9174" />
        <path
           d="m 84.498,19.834 c 4.996,-3.774 17.216,-8.676 30.988,-10.48 21.382,-2.8 39.71,3.5 45.82,11.9 0,0 34.66,1.012 47.464,35.11 l 1.652,0.252 c 1.652,0.032 2.69,-0.906 1.58,-4.092 C 199.458,16.45 162.3,15.422 162.3,15.422 c -6.3,-8.4 -25.2,-14.7 -47.25,-11.9 -16.066,2.04 -30.098,8.05 -33.598,11.9 -1.748,1.922 0.428,3.406 3.046,4.412"
           id="path65"
           inkscape:connector-curvature="0"
           style="fill:#bd9174" />
      </g>
      <path
         d="m 971.71312,593.19336 c -5.02774,10.49617 -12.34207,28.56442 -13.28443,46.48855 -0.25499,4.83373 1.48005,3.61144 3.37862,2.23671 3.02662,-25.71796 22.34488,-54.2214 22.34488,-54.2214 2.46398,-4.40966 -7.44737,-2.42517 -12.43907,5.49614"
         id="path67"
         inkscape:connector-curvature="0"
         style="fill:#bd9174" />
      <path
         d="m 1186.6558,592.89403 c -1.663,-1.03659 -7.622,-5.7151 -9.8753,-4.32929 -2.2506,1.38582 2.2533,6.40801 2.2533,6.40801 6.9291,8.83596 18.5256,31.62707 17.6886,57.72197 1.5271,1.82373 2.9379,1.84313 3.3758,-3.19015 1.9097,-21.97071 -7.2062,-45.69586 -13.4424,-56.61054"
         id="path69"
         inkscape:connector-curvature="0"
         style="fill:#bd9174" />
      <path
         d="m 1103.1604,661.63322 c 2.4003,-9.60647 9.6037,-18.53666 20.4076,-17.60816 9.9667,0.86198 21.2057,12.0067 22.4086,28.40921"
         id="path71"
         inkscape:connector-curvature="0"
         style="fill-opacity:0;stroke:#1a1919;stroke-width:4.43460798;stroke-linecap:round;stroke-linejoin:round" />
      <path
         d="m 1198.9313,695.5552 c 0,0 -13.0931,10.23563 -13.459,16.90972 -0.3631,6.67685 -1.092,38.27621 -1.092,38.27621 0,0 13.6697,-8.66966 18.7639,-22.02337 5.0915,-13.35095 5.9729,-35.3854 -4.2129,-33.16256"
         id="path73"
         inkscape:connector-curvature="0"
         style="fill:#d9a685" />
      <path
         d="m 959.8838,695.5552 c 0,0 13.09595,10.23563 13.45903,16.90972 0.36586,6.67685 1.09203,38.27621 1.09203,38.27621 0,0 -13.60316,-8.66966 -18.69465,-22.02337 -5.09425,-13.35095 -6.04215,-35.3854 4.14359,-33.16256"
         id="path75"
         inkscape:connector-curvature="0"
         style="fill:#d9a685" />
      <path
         d="m 1055.1198,841.41778 49.1964,0 -0.316,5.30767 c -26.3776,17.32823 -51.6437,9.39028 -51.6437,9.39028 l 2.7633,-14.69795"
         id="path77"
         inkscape:connector-curvature="0"
         style="fill:#d9a685" />
      <path
         d="m 1026.9406,573.59517 c -47.85218,29.62872 -57.23692,101.27536 -57.23692,155.73512 0,72.23145 49.19092,115.88462 109.86192,115.88462 60.6737,0 109.8618,-43.65317 109.8618,-115.88462 0,-60.65435 -11.9429,-142.63363 -75.3329,-164.12762 -11.9706,6.69626 -30.4048,11.06158 -43.2568,10.57654 -14.0245,-0.53215 -0.7262,-7.75779 3.8803,-13.82212 0,0 -16.2473,9.70071 -47.7774,11.63808"
         id="path79"
         inkscape:connector-curvature="0"
         style="fill:#f9d8bb" />
      <path
         d="m 1014.1246,671.52517 c 1.3165,-31.59658 34.7867,-33.76122 40.5046,-14.23509 1.3248,3.85257 2.8659,21.21128 -2.2007,31.08937 -4.2905,8.3731 -15.2855,9.93075 -24.4347,6.51056 -9.0272,-3.37861 -13.4313,-10.84816 -13.8692,-23.36484"
         id="path81"
         inkscape:connector-curvature="0"
         style="fill:#fffffe" />
      <path
         d="m 1038.4928,652.32332 c 5.5543,0 10.7844,1.72672 15.4463,4.71454 -6.8044,-17.03444 -29.6981,-16.78222 -37.6415,5.60701 6.031,-6.44404 13.7639,-10.32155 22.1952,-10.32155"
         id="path83"
         inkscape:connector-curvature="0"
         style="fill:#d6e5eb" />
      <path
         d="m 1051.8215,671.15932 c 0,8.72786 -4.6203,15.8066 -10.3187,15.8066 -5.6985,0 -10.3188,-7.07874 -10.3188,-15.8066 0,-8.73064 4.6203,-15.80661 10.3188,-15.80661 5.6984,0 10.3187,7.07597 10.3187,15.80661"
         id="path85"
         inkscape:connector-curvature="0"
         style="fill:#552200;fill-opacity:1" />
      <path
         d="m 1145.0121,671.52517 c -1.3166,-31.59658 -34.784,-33.76122 -40.5046,-14.23509 -1.3193,3.85257 -2.8659,21.21128 2.2034,31.08937 4.2877,8.3731 15.2828,9.93075 24.4347,6.51056 9.0244,-3.37861 13.4285,-10.84816 13.8665,-23.36484"
         id="path87"
         inkscape:connector-curvature="0"
         style="fill:#fffffe" />
      <path
         d="m 1120.4,652.32332 c -5.5516,0 -10.7844,1.72672 -15.4463,4.71454 6.8016,-17.03444 29.698,-16.78222 37.6415,5.60701 -6.0283,-6.44404 -13.7612,-10.32155 -22.1952,-10.32155"
         id="path89"
         inkscape:connector-curvature="0"
         style="fill:#d6e5eb" />
      <path
         d="m 1107.3151,671.15932 c 0,8.72786 4.6203,15.8066 10.3216,15.8066 5.6957,0 10.316,-7.07874 10.316,-15.8066 0,-8.73064 -4.6203,-15.80661 -10.316,-15.80661 -5.7013,0 -10.3216,7.07597 -10.3216,15.80661"
         id="path91"
         inkscape:connector-curvature="0"
         style="fill:#552200;fill-opacity:1" />
      <path
         d="m 1051.5416,665.40818 c 0,1.66298 -1.3498,3.01277 -3.0155,3.01277 -1.6658,0 -3.0156,-1.34979 -3.0156,-3.01277 0,-1.66852 1.3498,-3.01553 3.0156,-3.01553 1.6657,0 3.0155,1.34701 3.0155,3.01553"
         id="path93"
         inkscape:connector-curvature="0"
         style="fill:#fffffe" />
      <path
         d="m 1127.2071,665.40818 c 0,1.66298 -1.3526,3.01277 -3.0155,3.01277 -1.6658,0 -3.0156,-1.34979 -3.0156,-3.01277 0,-1.66852 1.3498,-3.01553 3.0156,-3.01553 1.6629,0 3.0155,1.34701 3.0155,3.01553"
         id="path95"
         inkscape:connector-curvature="0"
         style="fill:#fffffe" />
      <path
         d="m 1027.9218,750.82151 c 0,0 13.362,59.98084 51.4331,59.98084 38.0683,0 51.9293,-59.98084 51.9293,-59.98084 0,0 -18.0323,5.87585 -51.4581,5.87585 -33.3982,0 -51.9043,-5.87585 -51.9043,-5.87585"
         id="path97"
         inkscape:connector-curvature="0"
         style="fill:#de737e" />
      <path
         d="m 1078.8366,768.82324 c 16.0755,0 30.754,3.64192 41.9985,9.64527 7.3282,-14.17411 10.4491,-27.647 10.4491,-27.647 0,0 -18.0323,5.87585 -51.4581,5.87585 -33.3982,0 -51.9043,-5.87585 -51.9043,-5.87585 0,0 2.9296,13.12921 9.939,27.10377 11.106,-5.68185 25.3882,-9.10204 40.9758,-9.10204"
         id="path99"
         inkscape:connector-curvature="0"
         style="fill:#c35557" />
      <path
         d="m 1194.9042,1019.3814 0.067,-5.5461 49.5429,-26.6769 2.7716,19.7479 -52.661,36.0311 0.28,-23.556"
         id="path109"
         inkscape:connector-curvature="0"
         style="fill:#d9a685" />
      <path
         d="m 1079.5656,717.04088 c -6.9679,0 -13.2872,-1.66021 -17.963,-4.68406 2.5915,7.6109 9.6453,12.02888 17.963,12.02888 8.3176,0 15.3686,-4.41798 17.9629,-12.0261 -4.6785,3.02107 -10.9923,4.68128 -17.9629,4.68128"
         id="path111"
         inkscape:connector-curvature="0"
         style="fill:#d9a685" />
      <path
         id="path4387"
         d="m 1027.9218,750.82151 c 0,0 13.362,59.98084 51.4331,59.98084 38.0683,0 51.9293,-59.98084 51.9293,-59.98084 0,0 -18.0323,5.87585 -51.4581,5.87585 -33.3982,0 -51.9043,-5.87585 -51.9043,-5.87585 z"
         style="fill-opacity:0;stroke:#1a1919;stroke-width:4.43460798;stroke-linecap:round;stroke-linejoin:round"
         inkscape:connector-curvature="0" />
      <path
         d="m 1048.3764,630.17245 c 0.4047,-0.85643 -1.1447,-2.48615 -4.1325,-4.11587 -2.9767,-1.61586 -7.4363,-3.11808 -12.3753,-3.59203 -4.928,-0.5183 -10.2745,0.0776 -14.6204,1.46896 -4.3681,1.35533 -7.6774,3.37308 -9.2822,4.50667 -3.2594,2.23117 -6.6352,5.45457 -8.30931,8.60314 -1.69347,3.15412 -1.7683,5.9008 0.43511,7.00668 2.2451,1.13914 4.1409,-0.23559 6.1503,-2.1591 2.0011,-1.94014 4.3182,-4.46509 6.796,-6.17242 1.2168,-0.8592 3.6586,-2.42794 6.9707,-3.66686 3.2982,-1.26387 7.4723,-2.10367 11.5937,-2.24502 8.2899,-0.44624 15.9396,2.14801 16.7739,0.36585"
         id="path141"
         inkscape:connector-curvature="0"
         style="fill:#66462b" />
      <path
         d="m 965.64325,680.5108 c -5.27442,-0.68737 -17.92136,2.40577 -19.47902,23.36761 -1.95677,26.36097 5.89803,48.57559 27.35876,59.48749 m 155.73791,87.98263 c 4.0438,2.30876 4.2239,9.58429 -2.428,14.95571 -8.6585,6.98728 -20.6542,12.27001 -47.3117,12.27001 -26.6548,0 -39.0744,-5.66244 -47.3089,-12.27001 -8.1985,-6.57985 -8.3898,-14.44296 -2.7689,-15.64585"
         id="path143"
         inkscape:connector-curvature="0"
         style="fill-opacity:0;stroke:#1a1919;stroke-width:4.43460798;stroke-linecap:round;stroke-linejoin:round" />
      <path
         d="m 1142.0187,853.99543 c 5.0665,2.93516 5.2938,12.17023 -3.0433,18.98844 -10.8481,8.87199 -25.8787,15.57656 -59.2796,15.57656 -33.3981,0 -48.9636,-7.18961 -59.2824,-15.57656 -10.2716,-8.35369 -10.5128,-18.33433 -3.4673,-19.8615"
         id="path145"
         inkscape:connector-curvature="0"
         style="fill-opacity:0;stroke:#1a1919;stroke-width:3.32595611;stroke-linecap:round;stroke-linejoin:round" />
      <path
         inkscape:connector-curvature="0"
         transform="translate(0,456.36209)"
         id="path55"
         d="m 964.58594,527.30273 c 0.55372,24.45761 0.22224,50.07568 0.59179,66.44922 l 227.20897,0 c 0.3696,-16.37354 0.038,-41.99161 0.5918,-66.44922 -11.6883,3.58611 -23.8065,6.64029 -36.2793,9.13086 -23.8698,5.03767 -48.5505,7.75782 -76.1972,7.75782 -0.5751,0 -1.1465,-0.009 -1.7208,-0.0117 -0.5736,0.002 -1.1443,0.0117 -1.7187,0.0117 -27.6467,0 -52.3275,-2.72015 -76.1973,-7.75782 -12.47272,-2.49057 -24.59094,-5.54475 -36.27926,-9.13086 z"
         style="fill:#552200;fill-opacity:1" />
      <path
         id="path4399"
         d="m 1104.8789,847.05527 c 0,0 62.0512,8.3731 94.737,22.30608 15.4491,6.58539 28.9608,17.67191 38.6587,39.26291 7.5721,16.85982 18.7113,71.95151 18.7113,71.95151 l -60.6294,31.87373"
         style="fill-opacity:0;stroke:#1a1919;stroke-width:4.43460798;stroke-linecap:round;stroke-linejoin:round"
         inkscape:connector-curvature="0" />
      <path
         id="path4397"
         d="m 1197.1048,916.24901 c 0,0 -2.184,94.13569 -3.0792,133.86419"
         style="fill-opacity:0;stroke:#1a1919;stroke-width:4.43460798;stroke-linecap:round;stroke-linejoin:round"
         inkscape:connector-curvature="0" />
      <path
         id="path4395"
         d="m 1244.5136,987.1584 c 0,0 6.5826,48.7502 7.9684,62.9548"
         style="fill-opacity:0;stroke:#1a1919;stroke-width:4.43460798;stroke-linecap:round;stroke-linejoin:round"
         inkscape:connector-curvature="0" />
      <path
         d="m 1069.7734,681.12887 c -6.2972,5.74282 -9.2517,16.56603 -9.2517,24.5511 0,11.66302 8.5255,18.70573 19.0439,18.70573 10.5183,0 19.0411,-7.04271 19.0411,-18.70573 0,-7.98507 -2.9518,-18.80828 -9.2517,-24.5511"
         id="path151"
         inkscape:connector-curvature="0"
         style="fill-opacity:0;stroke:#1a1919;stroke-width:4.15744495;stroke-linecap:round;stroke-linejoin:round" />
      <path
         d="m 1055.4995,661.57502 c -2.4058,-9.60647 -9.6037,-18.53943 -20.4131,-17.61094 -9.964,0.86198 -21.2057,12.0067 -22.4086,28.41198"
         id="path153"
         inkscape:connector-curvature="0"
         style="fill-opacity:0;stroke:#1a1919;stroke-width:4.43460798;stroke-linecap:round;stroke-linejoin:round" />
      <path
         d="m 1110.278,630.23343 c 0.8342,1.78216 8.4867,-0.81209 16.7739,-0.36586 4.1242,0.14136 8.2983,0.98116 11.5965,2.24502 3.3121,1.23892 5.7539,2.80766 6.9706,3.6641 2.4779,1.71009 4.7922,4.23505 6.7961,6.17242 2.0066,1.92628 3.9052,3.29824 6.1502,2.16187 2.2035,-1.10865 2.1286,-3.85257 0.4324,-7.00668 -1.6713,-3.14857 -5.0499,-6.37198 -8.3066,-8.60314 -1.6047,-1.1336 -4.9141,-3.15134 -9.2822,-4.50667 -4.3459,-1.39136 -9.6924,-1.98726 -14.6203,-1.46619 -4.9391,0.47117 -9.3986,1.9734 -12.3753,3.58926 -2.9879,1.62694 -4.5372,3.25943 -4.1353,4.11587"
         id="path155"
         inkscape:connector-curvature="0"
         style="fill:#66462b" />
      <g
         transform="matrix(1.385815,0,0,1.385815,899.99996,514.63428)"
         id="g157">
        <path
           d="m 146.6,106.074 c 1.732,-6.932 6.93,-13.376 14.726,-12.706 7.192,0.622 15.302,8.664 16.17,20.5 M 91.6,42.546 c -34.53,21.38 -41.302,73.08 -41.302,112.378 0,52.122 35.496,83.622 79.276,83.622 43.782,0 79.276,-31.5 79.276,-83.622 0,-43.768 -8.618,-102.924 -54.36,-118.434 -8.638,4.832 -21.94,7.982 -31.214,7.632 -10.12,-0.384 -0.524,-5.598 2.8,-9.974 0,0 -11.724,7 -34.476,8.398 z m 112.35,11.726 c 0,0 10.85,6.3 8.052,-1.748 C 199.458,16.45 162.3,15.422 162.3,15.422 c -6.3,-8.4 -25.2,-14.7 -47.25,-11.9 -16.066,2.04 -30.098,8.05 -33.598,11.9 -3.502,3.85 8.75,5.948 8.75,5.948 0,0 -25.038,3.512 -41.302,24.852 -5.6,7.35 6.302,3.85 6.302,3.85 0,0 -11.99,20.214 -13.04,40.162 -0.292,5.562 4.464,0.526 4.464,0.526 0,0 -3.064,19.346 4.376,41.006 M 213.048,98.504 c 0,0 2.8,11.996 -4.64,33.654 m -1.434,-76.436 c 0,0 11.676,17.45 9.576,41.6 -0.79,9.072 -5.95,-4.55 -5.95,-4.55 M 40.062,131.448 c 0,0 4.2,-3.152 10.5,7.61 m 161.22,-19.362 c 3.804,-0.496 12.93,1.736 14.054,16.862 1.412,19.022 -4.256,35.052 -19.742,42.926 m 12.992,-48.036 c 0,0 -4.2,-3.152 -10.5,7.61 m -96.93,97.564 c 0,0 -0.102,6.606 -1.292,8.85 m 37.172,-8.648 c 0,0 0.202,6.202 1.298,8.648"
           id="path159"
           inkscape:connector-curvature="0"
           style="fill-opacity:0;stroke:#1a1919;stroke-width:3.20000005;stroke-linecap:round;stroke-linejoin:round" />
        <path
           d="m 224.1,306.472 c 0,0 -4.5,27 -11,36"
           id="path161"
           inkscape:connector-curvature="0"
           style="fill-opacity:0;stroke:#1a1919;stroke-width:2.5999999;stroke-linecap:round;stroke-linejoin:round" />
        <path
           d="m 111.36,239.874 c 0,0 -44.776,6.042 -68.362,16.096 C 31.85,260.722 22.1,268.722 15.102,284.302 9.636,296.468 1.6,336.222 1.6,336.222 l 43.75,23 m -0.542,-69.418 c 0,0 1.576,67.928 2.224,96.596 M 10.6,340.972 c 0,0 -4.75,35.178 -5.75,45.428"
           id="path163"
           inkscape:connector-curvature="0"
           style="fill-opacity:0;stroke:#1a1919;stroke-width:3.20000005;stroke-linecap:round;stroke-linejoin:round" />
      </g>
      <path
         d="m 948.64207,939.34778 c 0,0 6.23616,37.417 15.24396,49.88934"
         id="path165"
         inkscape:connector-curvature="0"
         style="fill-opacity:0;stroke:#1a1919;stroke-width:3.6031189;stroke-linecap:round;stroke-linejoin:round" />
    </g>
    <g
       id="g4261"
       transform="translate(0,4.847171e-5)">
      <path
         d="m 157.45127,1050.0218 -2.77192,-34.538 47.96493,0 0,34.538 -45.19301,0"
         id="path11"
         inkscape:connector-curvature="0"
         style="fill:#f9d8bb" />
      <path
         d="m 438.58362,1015.4838 -2.7748,34.538 -51.92812,0 0,-39.903 54.70292,5.365"
         id="path13"
         inkscape:connector-curvature="0"
         style="fill:#f9d8bb" />
      <path
         d="m 201.92029,1050.0218 c -2.62193,-7.8658 -4.42181,-15.2585 -5.40539,-23.0868 l -1.35856,-6.3977 -48.76103,-6.089 c -0.48458,-28.12302 10.57715,-99.03346 32.16699,-111.18262 24.95019,-14.04133 68.42697,-27.88075 94.43285,-34.19762 l 47.27267,0 c 26.003,6.31687 69.48267,20.15629 94.43285,34.19762 21.58696,12.14916 32.65157,83.0596 32.16411,111.18262 l -48.75815,6.089 -1.38451,6.565 c -0.98647,7.7648 -2.7777,15.1085 -5.38232,22.9195 l -189.41951,0"
         id="path15"
         inkscape:connector-curvature="0"
         style="opacity:1;fill:#9db7d4;fill-opacity:1" />
      <path
         d="m 286.73073,1010.1188 c -51.52718,0 -99.15463,-10.38964 -137.9327,-27.97015 -1.72777,12.68277 -2.54117,24.24925 -2.40272,32.29965 l 48.76103,6.089 1.35856,6.3977 c 0.98358,7.8283 2.78346,15.221 5.40539,23.0868 l 189.41951,0 c 2.60462,-7.811 4.39585,-15.1547 5.38232,-22.9195 l 1.38451,-6.565 48.75815,-6.089 c 0.17306,-9.9743 -1.11339,-25.33379 -3.80166,-41.5442 -41.59326,23.13878 -96.32503,37.2147 -156.33239,37.2147"
         id="path17"
         inkscape:connector-curvature="0"
         style="fill:#3b70aa;fill-opacity:1" />
      <path
         d="m 321.1418,875.38493 c -8.04752,-8.6792 -6.50147,-32.87367 -6.50147,-32.87367 l -36.01769,0 c 0,0 1.54317,24.19447 -6.50147,32.87367 l 49.02063,0"
         id="path19"
         inkscape:connector-curvature="0"
         style="fill:#f9d8bb" />
      <g
         transform="matrix(1.4422073,0,0,1.4422073,-295.58642,495.39503)"
         id="g21">
        <path
           d="m 372.734,265.926 c 4.808,7.47 19.954,12.926 37.898,12.926 17.942,0 33.09,-5.454 37.9,-12.922 l -21.51,-6.832 -32.778,0 -21.51,6.828"
           id="path23"
           inkscape:connector-curvature="0"
           style="fill:#f9d8bb" />
        <path
           d="m 432.128,237.48 c 22.334,16 49.584,0.998 49.584,0.998 -4,1 -10.748,-0.334 -12.748,-4 -2.286,-4.192 2.876,-8.572 12.748,-6.75 16.25,3 28.5,-4 28.5,-4 0,0 -18.25,-10.75 -5.25,-19 39.188,-24.868 18.162,-69.176 8.75,-86 -8.25,-14.75 -8.25,-23.5 -10.25,-31.5 -5.862,-23.45 -9.25,-37.25 -24,-46.25 -11.738,-7.162 -22.75,-4 -27.5,-0.75 -2.164,-13.416 -12.164,-23.748 -33.498,-24.082 -19.734,-0.308 -44.602,8.742 -55,24.334 -7.334,11 -23.666,44.666 -42,62.666 -16.15,15.856 -27,49.334 -7,76.334 11.906,16.07 27.666,30.332 5,35.666 0,0 10.998,10 26.666,8 0,0 -0.332,4.334 -6.666,7.334 0,0 23.666,13.998 50.666,7.332 l 41.998,-0.332"
           id="path25"
           inkscape:connector-curvature="0"
           style="fill:#dbb460" />
      </g>
      <path
         d="m 428.27761,807.20891 c -2.54982,5.03907 0.34613,10.17044 4.08433,14.17113 4.97273,-1.67873 7.88311,-3.32285 7.88311,-3.32285 0,0 -7.91195,-4.66987 -11.96744,-10.84828"
         id="path27"
         inkscape:connector-curvature="0"
         style="fill:#fad79d" />
      <path
         d="m 383.91531,836.80012 c -2.54693,1.99313 -3.27669,4.77947 -1.78256,7.51966 0.23652,0.43555 0.58553,0.81341 0.91147,1.20281 9.72048,-2.68539 16.09792,-6.19284 16.09792,-6.19284 -4.36989,1.09319 -11.00693,0.24229 -15.22683,-2.52963"
         id="path29"
         inkscape:connector-curvature="0"
         style="fill:#fad79d" />
      <path
         d="m 181.20154,795.61644 c -1.50278,4.31797 -6.29668,7.76773 -16.05465,10.06373 0,0 4.23432,3.82185 11.40497,7.13892 7.49083,-4.20259 7.86292,-10.13583 4.64968,-17.20265"
         id="path31"
         inkscape:connector-curvature="0"
         style="fill:#fad79d" />
      <path
         d="m 174.13472,656.78091 c 40.52603,-30.93534 51.89928,-73.79486 63.48309,-88.93515 26.8539,-35.09467 51.8012,-35.87058 75.53416,-34.61586 30.72767,1.62969 36.33786,14.18267 39.45879,33.53132 6.85049,-4.68718 25.23575,-13.22504 42.16438,-2.89595 21.27255,12.97986 28.65377,34.26684 37.11087,68.08949 2.88442,11.53766 -0.89993,24.18004 8.35904,46.72752 6.63415,16.14983 21.46581,27.44232 25.15498,47.51496 -1.7768,-24.20024 -13.13851,-47.11115 -20.10726,-59.57182 -11.89821,-21.27256 -11.89821,-33.89187 -14.78262,-45.42953 -8.45422,-33.81976 -13.34042,-53.72222 -34.61298,-66.70209 -16.92863,-10.32909 -32.81021,-5.76883 -39.6607,-1.08165 -3.12093,-19.34866 -17.54301,-34.24954 -48.31106,-34.73124 -28.46052,-0.4442 -64.32533,12.60778 -79.3214,35.09467 -10.57715,15.86428 -34.13128,64.41763 -60.57271,90.37737 -17.22284,16.90844 -32.69195,58.71514 -21.65041,88.86304 -1.56336,-26.92312 5.76883,-59.45067 27.75383,-76.23508"
         id="path33"
         inkscape:connector-curvature="0"
         style="fill:#ffeca5" />
      <path
         d="m 204.98065,827.97669 c -3.67474,0.47016 -7.15046,0.4442 -10.42715,0.13557 1.1653,0.64899 4.17951,2.24984 8.66189,4.11894 1.60951,-2.39118 1.76526,-4.25451 1.76526,-4.25451"
         id="path35"
         inkscape:connector-curvature="0"
         style="fill:#fad79d" />
      <path
         d="m 432.67346,790.65525 c 24.64155,-15.63929 32.76983,-36.6061 32.9804,-57.29313 -38.68866,43.66716 -107.89442,72.7709 -186.86392,72.7709 -34.91584,0 -67.90489,-5.71114 -97.21343,-15.82967 1.09897,6.83318 -2.9421,12.20396 -16.42962,15.37682 0,0 15.86139,14.42207 38.4579,11.53766 0,0 -0.47881,6.25052 -9.61376,10.57714 0,0 34.13128,20.18802 73.07088,10.57427 l 60.56982,-0.47882 c 32.21026,23.07532 71.51041,1.43933 71.51041,1.43933 -5.76883,1.4422 -15.50085,-0.4817 -18.38526,-5.76883 -3.29689,-6.04573 4.14779,-12.3626 18.38526,-9.7349 23.43587,4.32662 41.10291,-5.76883 41.10291,-5.76883 0,0 -26.32029,-15.50373 -7.57159,-27.40194"
         id="path37"
         inkscape:connector-curvature="0"
         style="fill:#be8f43" />
      <path
         d="m 200.72326,714.33941 c 5.97651,-9.28493 14.91819,-19.46403 27.39905,-30.76517 40.62121,-36.77629 36.89455,-63.46 41.01349,-83.29036 4.11895,-19.83035 13.90865,-26.68083 30.13348,-27.76249 16.69211,-1.11338 39.6607,15.50373 41.46346,31.36801 5.40828,-7.57159 11.53766,-16.94593 22.35422,-15.50373 10.81655,1.44221 18.74869,15.50373 19.4698,36.77629 0.65764,19.32846 -6.13227,54.43756 11.01846,90.44659 l 1.70757,4.02088 c -1.91525,22.85033 -8.78881,53.84913 -15.39123,68.26255 -10.35505,22.59362 -49.41868,57.68829 -83.26152,57.68829 -33.83995,0 -72.90357,-35.09467 -83.25862,-57.68829 -6.60531,-14.41342 -13.48176,-45.41222 -15.39124,-68.26255 l 2.74308,-5.29002"
         id="path39"
         inkscape:connector-curvature="0"
         style="fill:#f9d8bb" />
      <path
         d="m 363.08696,588.38567 c -10.81656,-1.4422 -16.94594,7.93214 -22.35422,15.50373 -1.80276,-15.86428 -24.77135,-32.48139 -41.46346,-31.36801 -16.22483,1.08166 -26.01453,7.93214 -30.13348,27.76249 -0.0577,0.27979 -0.1096,0.56535 -0.16441,0.85091 22.5792,-0.15576 73.69391,1.47105 113.07482,17.2488 -2.0162,-17.43629 -9.33973,-28.71435 -18.95925,-29.99792"
         id="path41"
         inkscape:connector-curvature="0"
         style="fill:#be8f43" />
      <path
         d="m 230.99807,707.66199 c 0,0 -0.76725,-5.05926 1.57778,-13.33753 6.04285,-21.32448 34.80911,-19.06887 38.32522,-4.13625 2.40271,11.50016 3.76704,19.31115 0,30.81131 -2.74885,8.39365 -12.4376,11.9934 -20.57742,10.00027 -10.79348,-2.64213 -17.81991,-11.84341 -19.32558,-23.3378"
         id="path47"
         inkscape:connector-curvature="0"
         style="fill:#fffffe" />
      <path
         d="m 251.43704,685.47219 c 7.35525,0 14.14517,2.37387 19.71209,6.3659 -0.12115,-0.55381 -0.22499,-1.08165 -0.3519,-1.64988 -3.53053,-14.32112 -31.28725,-16.92286 -39.13286,1.69603 5.57846,-4.02087 12.39145,-6.41205 19.77267,-6.41205"
         id="path49"
         inkscape:connector-curvature="0"
         style="fill:#d6e5eb" />
      <path
         d="m 255.54156,542.22062 c 0,0 13.38368,11.28383 51.60794,14.3615 21.56677,1.73065 5.65057,4.62083 -3.18439,5.63615 -9.74932,1.12203 -46.83424,0.67206 -64.05996,-5.63615 l 15.63641,-14.3615"
         id="path51"
         inkscape:connector-curvature="0"
         style="fill:#ffeca5" />
      <path
         d="m 264.40536,773.73528 c 0,0 8.32731,43.41332 32.07469,43.41332 23.73874,0 32.38044,-43.41332 32.38044,-43.41332 0,0 -11.24345,4.25451 -32.09199,4.25451 -20.82548,0 -32.36314,-4.25451 -32.36314,-4.25451"
         id="path113"
         inkscape:connector-curvature="0"
         style="fill:#de737e" />
      <path
         d="m 289.3469,699.75293 c 1.27202,4.76505 3.82185,17.91798 1.41048,30.58056 m 4.0699,-3.52476 c 0,0 -11.46843,9.93681 -11.90686,12.57028 -0.43843,2.63059 4.34681,14.74801 8.70805,18.33623"
         id="path115"
         inkscape:connector-curvature="0"
         style="fill-opacity:0;stroke:#1a1919;stroke-width:4.61506319;stroke-linecap:round;stroke-linejoin:round" />
      <path
         d="m 269.1358,704.20646 c 0,9.05706 -5.26694,16.3979 -11.76264,16.3979 -6.4957,0 -11.76264,-7.34084 -11.76264,-16.3979 0,-9.05129 5.26694,-16.39213 11.76264,-16.39213 6.4957,0 11.76264,7.34084 11.76264,16.39213"
         id="path117"
         inkscape:connector-curvature="0"
         style="fill:#3b70aa" />
      <path
         d="m 362.11202,707.66199 c 0,0 0.76149,-5.05926 -1.572,-13.33753 -6.01689,-21.32448 -34.65336,-19.06887 -38.15792,-4.13625 -2.3883,11.50016 -3.74974,19.31115 0,30.81131 2.73731,8.39365 12.38567,11.9934 20.48799,10.00027 10.74733,-2.64213 17.73915,-11.84341 19.24193,-23.3378"
         id="path119"
         inkscape:connector-curvature="0"
         style="fill:#fffffe" />
      <path
         d="m 341.82305,685.47219 c -7.35237,0 -14.14228,2.37387 -19.71209,6.3659 0.12115,-0.55381 0.22787,-1.08165 0.3519,-1.64988 3.53341,-14.32112 31.29013,-16.92286 39.13574,1.69603 -5.57846,-4.02087 -12.39145,-6.41205 -19.77555,-6.41205"
         id="path121"
         inkscape:connector-curvature="0"
         style="fill:#d6e5eb" />
      <path
         d="m 324.12717,704.20646 c 0,9.05706 5.26694,16.3979 11.76264,16.3979 6.4957,0 11.76264,-7.34084 11.76264,-16.3979 0,-9.05129 -5.26694,-16.39213 -11.76264,-16.39213 -6.4957,0 -11.76264,7.34084 -11.76264,16.39213"
         id="path123"
         inkscape:connector-curvature="0"
         style="fill:#374680" />
      <path
         d="m 324.12717,704.20646 c 0,9.05706 5.26694,16.3979 11.76264,16.3979 6.4957,0 11.76264,-7.34084 11.76264,-16.3979 0,-9.05129 -5.26694,-16.39213 -11.76264,-16.39213 -6.4957,0 -11.76264,7.34084 -11.76264,16.39213"
         id="path125"
         inkscape:connector-curvature="0"
         style="fill:#3b70aa" />
      <path
         d="m 268.98293,699.4616 c 0,1.88064 -1.39894,3.40649 -3.12382,3.40649 -1.722,0 -3.12382,-1.52585 -3.12382,-3.40649 0,-1.87775 1.40182,-3.40361 3.12382,-3.40361 1.72488,0 3.12382,1.52586 3.12382,3.40361"
         id="path127"
         inkscape:connector-curvature="0"
         style="fill:#fffffe" />
      <path
         d="m 347.58323,699.4616 c 0,1.88064 -1.39894,3.40649 -3.12382,3.40649 -1.722,0 -3.12382,-1.52585 -3.12382,-3.40649 0,-1.87775 1.40182,-3.40361 3.12382,-3.40361 1.72488,0 3.12382,1.52586 3.12382,3.40361"
         id="path129"
         inkscape:connector-curvature="0"
         style="fill:#fffffe" />
      <path
         d="m 296.63293,788.00447 c 9.33685,0 18.01028,2.47772 25.27324,6.7005 4.88331,-10.60311 6.95432,-20.96969 6.95432,-20.96969 0,0 -11.24345,4.25451 -32.09199,4.25451 -20.82548,0 -32.36314,-4.25451 -32.36314,-4.25451 0,0 2.00467,10.40696 6.82741,21.03315 7.28892,-4.26317 16.01427,-6.76396 25.40016,-6.76396"
         id="path131"
         inkscape:connector-curvature="0"
         style="fill:#c35557" />
      <path
         d="m 278.7409,842.66413 c 0,0 17.02959,5.59288 35.7754,0 l 0.1673,10.41562 c 0,0 -14.43362,13.30292 -37.24068,11.78572 l 1.29798,-22.20134"
         id="path133"
         inkscape:connector-curvature="0"
         style="fill:#d9a685" />
      <path
         d="m 154.67935,1016.3693 40.47699,4.168 3.82473,19.4641 -42.9172,-7.2486 -1.38452,-16.3835"
         id="path135"
         inkscape:connector-curvature="0"
         style="fill:#d9a685" />
      <path
         d="m 437.95771,1016.3693 -40.47988,4.168 -3.82473,19.4641 42.9172,-7.2486 1.38741,-16.3835"
         id="path137"
         inkscape:connector-curvature="0"
         style="fill:#d9a685" />
      <path
         id="path4385"
         d="m 264.40536,773.73528 c 0,0 8.32731,43.41332 32.07469,43.41332 23.73874,0 32.38044,-43.41332 32.38044,-43.41332 0,0 -11.24345,4.25451 -32.09199,4.25451 -20.82548,0 -32.36314,-4.25451 -32.36314,-4.25451 z"
         style="fill-opacity:0;stroke:#1a1919;stroke-width:4.61506319;stroke-linecap:round;stroke-linejoin:round"
         inkscape:connector-curvature="0" />
      <path
         id="path139"
         d="m 395.28279,719.62943 c -1.91525,22.85033 -8.78881,53.84913 -15.39123,68.26255 -10.35505,22.59362 -49.41868,57.68829 -83.26152,57.68829 -33.83995,0 -72.90357,-35.09467 -83.25862,-57.68829 -6.60531,-14.41342 -13.48176,-45.41222 -15.39124,-68.26255"
         style="fill-opacity:0;stroke:#1a1919;stroke-width:4.61506319;stroke-linecap:round;stroke-linejoin:round"
         inkscape:connector-curvature="0" />
      <path
         id="path4393"
         d="m 289.3469,699.75293 c 1.27202,4.76505 3.82185,17.91798 1.41048,30.58056"
         style="fill-opacity:0;stroke:#1a1919;stroke-width:4.61506319;stroke-linecap:round;stroke-linejoin:round"
         inkscape:connector-curvature="0" />
      <path
         id="path4391"
         d="m 294.82728,726.80873 c 0,0 -11.46843,9.93681 -11.90686,12.57028 -0.43843,2.63059 4.34681,14.74801 8.70805,18.33623"
         style="fill-opacity:0;stroke:#1a1919;stroke-width:4.61506319;stroke-linecap:round;stroke-linejoin:round"
         inkscape:connector-curvature="0" />
      <path
         id="path147"
         d="m 270.79723,690.18821 c -5.22656,-14.49419 -32.10354,-19.00541 -39.18478,3.41514 -2.58443,8.18309 -0.25959,14.64706 -0.25959,14.64706"
         style="fill-opacity:0;stroke:#1a1919;stroke-width:4.61506319;stroke-linecap:round;stroke-linejoin:round"
         inkscape:connector-curvature="0" />
      <path
         d="m 229.34819,702.86809 -6.48128,-2.29888 m 141.04787,2.29888 6.48128,-2.29888"
         id="path149"
         inkscape:connector-curvature="0"
         style="fill-opacity:0;stroke:#1a1919;stroke-width:4.03818035;stroke-linecap:round;stroke-linejoin:round" />
      <path
         d="m 322.46286,690.18821 c 5.22944,-14.49419 32.10354,-19.00541 39.18477,3.41514 2.58732,8.18309 0.26249,14.64706 0.26249,14.64706 m -167.19798,50.31861 c -9.13206,-19.23039 -2.50367,-42.47877 33.41017,-74.99478 40.62121,-36.77629 36.89455,-63.46 41.01349,-83.29036 4.11895,-19.83035 13.90865,-26.68083 30.13348,-27.76249 16.69211,-1.11338 39.6607,15.50373 41.46346,31.36801 5.40828,-7.57159 11.53766,-16.94593 22.35422,-15.50373 10.81655,1.44221 18.74869,15.50373 19.4698,36.77629 0.7211,21.27256 -7.57159,61.65437 16.94593,101.31507 15.51527,25.09729 8.29269,39.30015 8.29269,39.30015 m -80.16365,72.11324 c 32.21026,23.07532 71.51041,1.43933 71.51041,1.43933 -5.76883,1.4422 -15.50085,-0.4817 -18.38526,-5.76883 -3.29689,-6.04573 4.14779,-12.3626 18.38526,-9.7349 23.43587,4.32662 41.10291,-5.76883 41.10291,-5.76883 0,0 -26.32029,-15.50373 -7.57159,-27.40194 56.51722,-35.86481 26.19337,-99.76613 12.61931,-124.02983 -11.89821,-21.27256 -11.89821,-33.89187 -14.78262,-45.42953 -8.45422,-33.81976 -13.34042,-53.72222 -34.61298,-66.70209 -16.92863,-10.32909 -32.81021,-5.76883 -39.6607,-1.08165 -3.12093,-19.34866 -17.54301,-34.24954 -48.31106,-34.73124 -28.46052,-0.4442 -64.32533,12.60778 -79.3214,35.09467 -10.57715,15.86428 -34.13128,64.41763 -60.57271,90.37737 -23.29164,22.86764 -38.93959,71.14985 -10.09545,110.08945 17.17092,23.17627 39.90011,43.74503 7.21104,51.43777 0,0 15.86139,14.42207 38.4579,11.53766 0,0 -0.47881,6.25052 -9.61376,10.57714 0,0 34.13128,20.18802 73.07088,10.57427 m 52.75883,-174.26768 c 7.57159,-11.22903 41.10291,-21.27256 46.51118,5.02177 m -92.89257,-5.02177 c -3.00844,-4.46219 -10.11853,-8.73689 -17.93529,-10.61753 m 23.11858,189.02723 c 0,0 1.54317,24.19447 -6.50147,32.87367 m 2.45176,-6.31687 c -26.00589,6.31687 -71.06044,20.15629 -96.01063,34.19762 -21.58984,12.14916 -32.65157,83.0596 -32.16699,111.18262 l 48.76103,6.089 M 314.64033,842.51126 c 0,0 -1.54605,24.19447 6.50147,32.87367 M 308.0754,573.38095 c 0,0 18.53525,12.43183 16.05177,28.03363 m -35.26774,-27.06735 c 0,0 24.3185,7.18219 24.29254,27.06735 m -37.31856,-17.82857 c 0,0 18.99387,1.61527 25.18383,15.68545 m 51.59352,7.34371 c 0,0 9.52434,-13.94037 21.4312,-11.25498 m -10.71848,14.31246 c 0,0 9.42338,-6.05438 16.6373,-1.95851 m -198.23139,307.7007 c 0,0 10.09833,44.54689 16.25079,67.30493 -4.11894,29.77293 -2.84403,46.94383 3.94011,67.30203 M 351.2897,878.92122 c -6.93702,10.77041 -28.78357,18.63621 -54.65966,18.63621 -25.87896,0 -47.72264,-7.86869 -54.65677,-18.64198 m -87.29392,136.56835 2.77192,34.538 M 317.83049,869.06806 c 26.00588,6.31687 71.92,20.15629 96.87018,34.19762 21.58696,12.14916 32.65157,83.0596 32.16411,111.18262 l -48.75815,6.089 M 411.5307,915.41484 c 0,0 -10.09834,44.54689 -16.24791,67.30493 4.11895,29.77293 2.84404,46.94383 -3.94299,67.30203 m 47.24382,-34.538 -2.7748,34.538"
         id="path167"
         inkscape:connector-curvature="0"
         style="fill-opacity:0;stroke:#1a1919;stroke-width:4.61506319;stroke-linecap:round;stroke-linejoin:round" />
    </g>
  </g>
</svg>
